0
SECTION
2
HEADER
9
$INSUNITS
70
4
9
$ACADVER
1
AC1014
9
$HANDSEED
5
FFFF
0
ENDSEC
0
SECTION
2
TABLES
0
TABLE
2
VPORT
5
8
100
AcDbSymbolTable
0
ENDTAB
0
TABLE
2
LTYPE
5
5
100
AcDbSymbolTable
70
2
0
LTYPE
5
14
100
AcDbSymbolTableRecord
100
AcDbLinetypeTableRecord
2
BYBLOCK
70
0
0
LTYPE
5
15
100
AcDbSymbolTableRecord
100
AcDbLinetypeTableRecord
2
BYLAYER
70
0
0
ENDTAB
0
TABLE
2
LAYER
5
2
100
AcDbSymbolTable
70
3
0
LAYER
5
50
100
AcDbSymbolTableRecord
100
AcDbLayerTableRecord
2
0
70
0
6
CONTINUOUS
0
LAYER
5
51
100
AcDbSymbolTableRecord
100
AcDbLayerTableRecord
2
CUTOUTS
70
0
62
1
6
CONTINUOUS
0
LAYER
5
52
100
AcDbSymbolTableRecord
100
AcDbLayerTableRecord
2
PERIMETER
70
0
62
5
6
CONTINUOUS
0
ENDTAB
0
TABLE
2
STYLE
5
3
100
AcDbSymbolTable
70
1
0
STYLE
5
11
100
AcDbSymbolTableRecord
100
AcDbTextStyleTableRecord
2
STANDARD
70
0
0
ENDTAB
0
TABLE
2
VIEW
5
6
100
AcDbSymbolTable
0
ENDTAB
0
TABLE
2
UCS
5
7
100
AcDbSymbolTable
0
ENDTAB
0
TABLE
2
APPID
5
9
100
AcDbSymbolTable
70
1
0
APPID
5
12
100
AcDbSymbolTableRecord
100
AcDbRegAppTableRecord
2
ACAD
70
0
0
ENDTAB
0
TABLE
2
DIMSTYLE
5
A
100
AcDbSymbolTable
0
ENDTAB
0
TABLE
2
BLOCK_RECORD
5
1
100
AcDbSymbolTable
70
2
0
BLOCK_RECORD
5
1F
100
AcDbSymbolTableRecord
100
AcDbBlockTableRecord
2
*MODEL_SPACE
0
BLOCK_RECORD
5
1B
100
AcDbSymbolTableRecord
100
AcDbBlockTableRecord
2
*PAPER_SPACE
0
ENDTAB
0
ENDSEC
0
SECTION
2
BLOCKS
0
BLOCK
5
20
100
AcDbEntity
100
AcDbBlockBegin
2
*MODEL_SPACE
0
ENDBLK
5
21
100
AcDbEntity
100
AcDbBlockEnd
0
BLOCK
5
1C
100
AcDbEntity
100
AcDbBlockBegin
2
*PAPER_SPACE
0
ENDBLK
5
1D
100
AcDbEntity
100
AcDbBlockEnd
0
ENDSEC
0
SECTION
2
ENTITIES
0
CIRCLE
5
100
100
AcDbEntity
8
CUTOUTS
100
AcDbCircle
10
81.700635109512234
20
17.423874140782583
30
0
40
3.8000000000000078
210
0
220
0
230
1
0
CIRCLE
5
101
100
AcDbEntity
8
CUTOUTS
100
AcDbCircle
10
73.243401522439072
20
20.502055430713604
30
0
40
3.7999999999999989
210
0
220
0
230
1
0
CIRCLE
5
102
100
AcDbEntity
8
CUTOUTS
100
AcDbCircle
10
64.786167935365896
20
23.580236720644624
30
0
40
3.7999999999999989
210
0
220
0
230
1
0
CIRCLE
5
103
100
AcDbEntity
8
CUTOUTS
100
AcDbCircle
10
56.328934348292719
20
26.658418010575645
30
0
40
3.7999999999999989
210
0
220
0
230
1
0
CIRCLE
5
104
100
AcDbEntity
8
CUTOUTS
100
AcDbCircle
10
47.871700761219543
20
29.736599300506668
30
0
40
3.7999999999999989
210
0
220
0
230
1
0
CIRCLE
5
105
100
AcDbEntity
8
CUTOUTS
100
AcDbCircle
10
39.414467174146367
20
32.814780590437692
30
0
40
3.7999999999999989
210
0
220
0
230
1
0
CIRCLE
5
106
100
AcDbEntity
8
CUTOUTS
100
AcDbCircle
10
30.957233587073194
20
35.892961880368702
30
0
40
3.7999999999999989
210
0
220
0
230
1
0
CIRCLE
5
107
100
AcDbEntity
8
CUTOUTS
100
AcDbCircle
10
22.500000000000018
20
38.971143170299726
30
0
40
3.7999999999999989
210
0
220
0
230
1
0
CIRCLE
5
108
100
AcDbEntity
8
CUTOUTS
100
AcDbCircle
10
79.466762580551716
20
-25.760799916495674
30
0
40
3.7999999999999989
210
0
220
0
230
1
0
CIRCLE
5
109
100
AcDbEntity
8
CUTOUTS
100
AcDbCircle
10
73.681674093372862
20
-18.866399928424858
30
0
40
3.7999999999999989
210
0
220
0
230
1
0
CIRCLE
5
10A
100
AcDbEntity
8
CUTOUTS
100
AcDbCircle
10
67.896585606194009
20
-11.971999940354054
30
0
40
3.7999999999999989
210
0
220
0
230
1
0
CIRCLE
5
10B
100
AcDbEntity
8
CUTOUTS
100
AcDbCircle
10
62.111497119015162
20
-5.0775999522832516
30
0
40
3.7999999999999989
210
0
220
0
230
1
0
CIRCLE
5
10C
100
AcDbEntity
8
CUTOUTS
100
AcDbCircle
10
56.326408631836308
20
1.8168000357875558
30
0
40
3.7999999999999989
210
0
220
0
230
1
0
CIRCLE
5
10D
100
AcDbEntity
8
CUTOUTS
100
AcDbCircle
10
50.541320144657462
20
8.7112000238583587
30
0
40
3.7999999999999989
210
0
220
0
230
1
0
CIRCLE
5
10E
100
AcDbEntity
8
CUTOUTS
100
AcDbCircle
10
44.756231657478608
20
15.605600011929164
30
0
40
3.7999999999999989
210
0
220
0
230
1
0
CIRCLE
5
10F
100
AcDbEntity
8
CUTOUTS
100
AcDbCircle
10
38.971143170299754
20
22.499999999999968
30
0
40
3.7999999999999989
210
0
220
0
230
1
0
CIRCLE
5
110
100
AcDbEntity
8
CUTOUTS
100
AcDbCircle
10
55.93983519301662
20
-62.042888439769115
30
0
40
3.7999999999999989
210
0
220
0
230
1
0
CIRCLE
5
111
100
AcDbEntity
8
CUTOUTS
100
AcDbCircle
10
54.377001594014246
20
-53.179618662659244
30
0
40
3.7999999999999989
210
0
220
0
230
1
0
CIRCLE
5
112
100
AcDbEntity
8
CUTOUTS
100
AcDbCircle
10
52.814167995011871
20
-44.316348885549374
30
0
40
3.7999999999999989
210
0
220
0
230
1
0
CIRCLE
5
113
100
AcDbEntity
8
CUTOUTS
100
AcDbCircle
10
51.251334396009497
20
-35.453079108439496
30
0
40
3.7999999999999989
210
0
220
0
230
1
0
CIRCLE
5
114
100
AcDbEntity
8
CUTOUTS
100
AcDbCircle
10
49.688500797007123
20
-26.589809331329626
30
0
40
3.7999999999999989
210
0
220
0
230
1
0
CIRCLE
5
115
100
AcDbEntity
8
CUTOUTS
100
AcDbCircle
10
48.125667198004749
20
-17.726539554219755
30
0
40
3.7999999999999989
210
0
220
0
230
1
0
CIRCLE
5
116
100
AcDbEntity
8
CUTOUTS
100
AcDbCircle
10
46.562833599002374
20
-8.8632697771098794
30
0
40
3.7999999999999989
210
0
220
0
230
1
0
CIRCLE
5
117
100
AcDbEntity
8
CUTOUTS
100
AcDbCircle
10
45
20
-8.2663658942446335e-15
30
0
40
3.7999999999999989
210
0
220
0
230
1
0
CIRCLE
5
118
100
AcDbEntity
8
CUTOUTS
100
AcDbCircle
10
17.423874140782583
20
-81.700635109512234
30
0
40
3.7999999999999989
210
0
220
0
230
1
0
CIRCLE
5
119
100
AcDbEntity
8
CUTOUTS
100
AcDbCircle
10
20.502055430713604
20
-73.243401522439072
30
0
40
3.7999999999999989
210
0
220
0
230
1
0
CIRCLE
5
11A
100
AcDbEntity
8
CUTOUTS
100
AcDbCircle
10
23.580236720644624
20
-64.786167935365896
30
0
40
3.7999999999999989
210
0
220
0
230
1
0
CIRCLE
5
11B
100
AcDbEntity
8
CUTOUTS
100
AcDbCircle
10
26.658418010575645
20
-56.328934348292719
30
0
40
3.7999999999999989
210
0
220
0
230
1
0
CIRCLE
5
11C
100
AcDbEntity
8
CUTOUTS
100
AcDbCircle
10
29.736599300506668
20
-47.871700761219543
30
0
40
3.7999999999999989
210
0
220
0
230
1
0
CIRCLE
5
11D
100
AcDbEntity
8
CUTOUTS
100
AcDbCircle
10
32.814780590437692
20
-39.414467174146367
30
0
40
3.7999999999999989
210
0
220
0
230
1
0
CIRCLE
5
11E
100
AcDbEntity
8
CUTOUTS
100
AcDbCircle
10
35.892961880368702
20
-30.957233587073194
30
0
40
3.7999999999999989
210
0
220
0
230
1
0
CIRCLE
5
11F
100
AcDbEntity
8
CUTOUTS
100
AcDbCircle
10
38.971143170299726
20
-22.500000000000018
30
0
40
3.8000000000000034
210
0
220
0
230
1
0
CIRCLE
5
120
100
AcDbEntity
8
CUTOUTS
100
AcDbCircle
10
-25.760799916495625
20
-79.46676258055173
30
0
40
3.7999999999999989
210
0
220
0
230
1
0
CIRCLE
5
121
100
AcDbEntity
8
CUTOUTS
100
AcDbCircle
10
-18.866399928424826
20
-73.681674093372877
30
0
40
3.7999999999999989
210
0
220
0
230
1
0
CIRCLE
5
122
100
AcDbEntity
8
CUTOUTS
100
AcDbCircle
10
-11.971999940354019
20
-67.896585606194023
30
0
40
3.7999999999999998
210
0
220
0
230
1
0
CIRCLE
5
123
100
AcDbEntity
8
CUTOUTS
100
AcDbCircle
10
-5.0775999522832205
20
-62.111497119015162
30
0
40
3.7999999999999998
210
0
220
0
230
1
0
CIRCLE
5
124
100
AcDbEntity
8
CUTOUTS
100
AcDbCircle
10
1.8168000357875824
20
-56.326408631836316
30
0
40
3.7999999999999998
210
0
220
0
230
1
0
CIRCLE
5
125
100
AcDbEntity
8
CUTOUTS
100
AcDbCircle
10
8.7112000238583853
20
-50.541320144657462
30
0
40
3.7999999999999989
210
0
220
0
230
1
0
CIRCLE
5
126
100
AcDbEntity
8
CUTOUTS
100
AcDbCircle
10
15.605600011929187
20
-44.756231657478608
30
0
40
3.7999999999999989
210
0
220
0
230
1
0
CIRCLE
5
127
100
AcDbEntity
8
CUTOUTS
100
AcDbCircle
10
22.499999999999993
20
-38.971143170299747
30
0
40
3.7999999999999989
210
0
220
0
230
1
0
CIRCLE
5
128
100
AcDbEntity
8
CUTOUTS
100
AcDbCircle
10
-62.042888439769115
20
-55.939835193016627
30
0
40
3.7999999999999989
210
0
220
0
230
1
0
CIRCLE
5
129
100
AcDbEntity
8
CUTOUTS
100
AcDbCircle
10
-53.179618662659244
20
-54.377001594014246
30
0
40
3.7999999999999989
210
0
220
0
230
1
0
CIRCLE
5
12A
100
AcDbEntity
8
CUTOUTS
100
AcDbCircle
10
-44.316348885549374
20
-52.814167995011871
30
0
40
3.7999999999999989
210
0
220
0
230
1
0
CIRCLE
5
12B
100
AcDbEntity
8
CUTOUTS
100
AcDbCircle
10
-35.453079108439496
20
-51.251334396009504
30
0
40
3.7999999999999989
210
0
220
0
230
1
0
CIRCLE
5
12C
100
AcDbEntity
8
CUTOUTS
100
AcDbCircle
10
-26.589809331329622
20
-49.688500797007123
30
0
40
3.7999999999999989
210
0
220
0
230
1
0
CIRCLE
5
12D
100
AcDbEntity
8
CUTOUTS
100
AcDbCircle
10
-17.726539554219748
20
-48.125667198004749
30
0
40
3.7999999999999989
210
0
220
0
230
1
0
CIRCLE
5
12E
100
AcDbEntity
8
CUTOUTS
100
AcDbCircle
10
-8.8632697771098776
20
-46.562833599002374
30
0
40
3.7999999999999998
210
0
220
0
230
1
0
CIRCLE
5
12F
100
AcDbEntity
8
CUTOUTS
100
AcDbCircle
10
-5.5109105961630896e-15
20
-45
30
0
40
3.7999999999999998
210
0
220
0
230
1
0
CIRCLE
5
130
100
AcDbEntity
8
CUTOUTS
100
AcDbCircle
10
-81.700635109512248
20
-17.423874140782594
30
0
40
3.7999999999999989
210
0
220
0
230
1
0
CIRCLE
5
131
100
AcDbEntity
8
CUTOUTS
100
AcDbCircle
10
-73.243401522439072
20
-20.502055430713618
30
0
40
3.7999999999999989
210
0
220
0
230
1
0
CIRCLE
5
132
100
AcDbEntity
8
CUTOUTS
100
AcDbCircle
10
-64.786167935365896
20
-23.580236720644638
30
0
40
3.7999999999999989
210
0
220
0
230
1
0
CIRCLE
5
133
100
AcDbEntity
8
CUTOUTS
100
AcDbCircle
10
-56.328934348292719
20
-26.658418010575655
30
0
40
3.7999999999999989
210
0
220
0
230
1
0
CIRCLE
5
134
100
AcDbEntity
8
CUTOUTS
100
AcDbCircle
10
-47.871700761219543
20
-29.736599300506672
30
0
40
3.7999999999999989
210
0
220
0
230
1
0
CIRCLE
5
135
100
AcDbEntity
8
CUTOUTS
100
AcDbCircle
10
-39.414467174146367
20
-32.814780590437692
30
0
40
3.7999999999999989
210
0
220
0
230
1
0
CIRCLE
5
136
100
AcDbEntity
8
CUTOUTS
100
AcDbCircle
10
-30.957233587073191
20
-35.892961880368716
30
0
40
3.7999999999999989
210
0
220
0
230
1
0
CIRCLE
5
137
100
AcDbEntity
8
CUTOUTS
100
AcDbCircle
10
-22.500000000000014
20
-38.971143170299733
30
0
40
3.7999999999999989
210
0
220
0
230
1
0
CIRCLE
5
138
100
AcDbEntity
8
CUTOUTS
100
AcDbCircle
10
-79.46676258055173
20
25.760799916495625
30
0
40
3.7999999999999989
210
0
220
0
230
1
0
CIRCLE
5
139
100
AcDbEntity
8
CUTOUTS
100
AcDbCircle
10
-73.681674093372877
20
18.866399928424826
30
0
40
3.7999999999999989
210
0
220
0
230
1
0
CIRCLE
5
13A
100
AcDbEntity
8
CUTOUTS
100
AcDbCircle
10
-67.896585606194023
20
11.971999940354019
30
0
40
3.7999999999999989
210
0
220
0
230
1
0
CIRCLE
5
13B
100
AcDbEntity
8
CUTOUTS
100
AcDbCircle
10
-62.111497119015162
20
5.0775999522832205
30
0
40
3.7999999999999989
210
0
220
0
230
1
0
CIRCLE
5
13C
100
AcDbEntity
8
CUTOUTS
100
AcDbCircle
10
-56.326408631836316
20
-1.8168000357875824
30
0
40
3.7999999999999989
210
0
220
0
230
1
0
CIRCLE
5
13D
100
AcDbEntity
8
CUTOUTS
100
AcDbCircle
10
-50.541320144657462
20
-8.7112000238583853
30
0
40
3.7999999999999989
210
0
220
0
230
1
0
CIRCLE
5
13E
100
AcDbEntity
8
CUTOUTS
100
AcDbCircle
10
-44.756231657478608
20
-15.605600011929187
30
0
40
3.7999999999999989
210
0
220
0
230
1
0
CIRCLE
5
13F
100
AcDbEntity
8
CUTOUTS
100
AcDbCircle
10
-38.971143170299747
20
-22.499999999999993
30
0
40
3.7999999999999989
210
0
220
0
230
1
0
CIRCLE
5
140
100
AcDbEntity
8
CUTOUTS
100
AcDbCircle
10
-55.939835193016627
20
62.042888439769108
30
0
40
3.7999999999999989
210
0
220
0
230
1
0
CIRCLE
5
141
100
AcDbEntity
8
CUTOUTS
100
AcDbCircle
10
-54.377001594014246
20
53.179618662659237
30
0
40
3.7999999999999989
210
0
220
0
230
1
0
CIRCLE
5
142
100
AcDbEntity
8
CUTOUTS
100
AcDbCircle
10
-52.814167995011879
20
44.31634888554936
30
0
40
3.7999999999999989
210
0
220
0
230
1
0
CIRCLE
5
143
100
AcDbEntity
8
CUTOUTS
100
AcDbCircle
10
-51.251334396009504
20
35.453079108439496
30
0
40
3.7999999999999989
210
0
220
0
230
1
0
CIRCLE
5
144
100
AcDbEntity
8
CUTOUTS
100
AcDbCircle
10
-49.688500797007123
20
26.589809331329622
30
0
40
3.7999999999999989
210
0
220
0
230
1
0
CIRCLE
5
145
100
AcDbEntity
8
CUTOUTS
100
AcDbCircle
10
-48.125667198004749
20
17.726539554219748
30
0
40
3.7999999999999989
210
0
220
0
230
1
0
CIRCLE
5
146
100
AcDbEntity
8
CUTOUTS
100
AcDbCircle
10
-46.562833599002374
20
8.8632697771098741
30
0
40
3.7999999999999989
210
0
220
0
230
1
0
CIRCLE
5
147
100
AcDbEntity
8
CUTOUTS
100
AcDbCircle
10
-45
20
2.7554552980815448e-15
30
0
40
3.7999999999999989
210
0
220
0
230
1
0
CIRCLE
5
148
100
AcDbEntity
8
CUTOUTS
100
AcDbCircle
10
-17.423874140782615
20
81.700635109512234
30
0
40
3.8000000000000012
210
0
220
0
230
1
0
CIRCLE
5
149
100
AcDbEntity
8
CUTOUTS
100
AcDbCircle
10
-20.502055430713636
20
73.243401522439058
30
0
40
3.8000000000000012
210
0
220
0
230
1
0
CIRCLE
5
14A
100
AcDbEntity
8
CUTOUTS
100
AcDbCircle
10
-23.580236720644653
20
64.786167935365881
30
0
40
3.8000000000000012
210
0
220
0
230
1
0
CIRCLE
5
14B
100
AcDbEntity
8
CUTOUTS
100
AcDbCircle
10
-26.658418010575666
20
56.328934348292705
30
0
40
3.7999999999999989
210
0
220
0
230
1
0
CIRCLE
5
14C
100
AcDbEntity
8
CUTOUTS
100
AcDbCircle
10
-29.736599300506686
20
47.871700761219529
30
0
40
3.7999999999999989
210
0
220
0
230
1
0
CIRCLE
5
14D
100
AcDbEntity
8
CUTOUTS
100
AcDbCircle
10
-32.814780590437699
20
39.41446717414636
30
0
40
3.7999999999999989
210
0
220
0
230
1
0
CIRCLE
5
14E
100
AcDbEntity
8
CUTOUTS
100
AcDbCircle
10
-35.892961880368716
20
30.95723358707318
30
0
40
3.7999999999999989
210
0
220
0
230
1
0
CIRCLE
5
14F
100
AcDbEntity
8
CUTOUTS
100
AcDbCircle
10
-38.971143170299733
20
22.500000000000004
30
0
40
3.7999999999999989
210
0
220
0
230
1
0
CIRCLE
5
150
100
AcDbEntity
8
CUTOUTS
100
AcDbCircle
10
25.760799916495611
20
79.46676258055173
30
0
40
3.7999999999999989
210
0
220
0
230
1
0
CIRCLE
5
151
100
AcDbEntity
8
CUTOUTS
100
AcDbCircle
10
18.866399928424812
20
73.681674093372877
30
0
40
3.7999999999999989
210
0
220
0
230
1
0
CIRCLE
5
152
100
AcDbEntity
8
CUTOUTS
100
AcDbCircle
10
11.97199994035401
20
67.896585606194023
30
0
40
3.7999999999999989
210
0
220
0
230
1
0
CIRCLE
5
153
100
AcDbEntity
8
CUTOUTS
100
AcDbCircle
10
5.0775999522832116
20
62.111497119015162
30
0
40
3.7999999999999998
210
0
220
0
230
1
0
CIRCLE
5
154
100
AcDbEntity
8
CUTOUTS
100
AcDbCircle
10
-1.8168000357875913
20
56.326408631836308
30
0
40
3.7999999999999998
210
0
220
0
230
1
0
CIRCLE
5
155
100
AcDbEntity
8
CUTOUTS
100
AcDbCircle
10
-8.7112000238583924
20
50.541320144657448
30
0
40
3.7999999999999998
210
0
220
0
230
1
0
CIRCLE
5
156
100
AcDbEntity
8
CUTOUTS
100
AcDbCircle
10
-15.605600011929193
20
44.756231657478594
30
0
40
3.7999999999999989
210
0
220
0
230
1
0
CIRCLE
5
157
100
AcDbEntity
8
CUTOUTS
100
AcDbCircle
10
-22.499999999999996
20
38.97114317029974
30
0
40
3.7999999999999989
210
0
220
0
230
1
0
CIRCLE
5
158
100
AcDbEntity
8
CUTOUTS
100
AcDbCircle
10
62.042888439769108
20
55.939835193016627
30
0
40
3.7999999999999989
210
0
220
0
230
1
0
CIRCLE
5
159
100
AcDbEntity
8
CUTOUTS
100
AcDbCircle
10
53.179618662659237
20
54.37700159401426
30
0
40
3.7999999999999989
210
0
220
0
230
1
0
CIRCLE
5
15A
100
AcDbEntity
8
CUTOUTS
100
AcDbCircle
10
44.31634888554936
20
52.814167995011879
30
0
40
3.7999999999999989
210
0
220
0
230
1
0
CIRCLE
5
15B
100
AcDbEntity
8
CUTOUTS
100
AcDbCircle
10
35.453079108439489
20
51.251334396009504
30
0
40
3.7999999999999989
210
0
220
0
230
1
0
CIRCLE
5
15C
100
AcDbEntity
8
CUTOUTS
100
AcDbCircle
10
26.589809331329619
20
49.688500797007123
30
0
40
3.7999999999999989
210
0
220
0
230
1
0
CIRCLE
5
15D
100
AcDbEntity
8
CUTOUTS
100
AcDbCircle
10
17.726539554219745
20
48.125667198004756
30
0
40
3.7999999999999989
210
0
220
0
230
1
0
CIRCLE
5
15E
100
AcDbEntity
8
CUTOUTS
100
AcDbCircle
10
8.8632697771098723
20
46.562833599002374
30
0
40
3.7999999999999989
210
0
220
0
230
1
0
CIRCLE
5
15F
100
AcDbEntity
8
CUTOUTS
100
AcDbCircle
10
-6.1629758220391547e-32
20
45
30
0
40
3.7999999999999998
210
0
220
0
230
1
0
ARC
5
160
100
AcDbEntity
8
CUTOUTS
100
AcDbCircle
10
79.90204834722941
20
4.2441951438118544
30
0
40
4.9250000000000203
210
0
220
-0
230
1
100
AcDbArc
50
7.6009518065705945
51
70.000000000000426
0
LINE
5
161
100
AcDbEntity
8
CUTOUTS
100
AcDbLine
10
58.62348550084603
20
17.230034177301995
30
0
11
81.586497553108302
21
8.8721813011824899
31
0
0
ARC
5
162
100
AcDbEntity
8
CUTOUTS
100
AcDbCircle
10
57.965096724944118
20
15.421125882289122
30
0
40
1.925
210
0
220
-0
230
1
100
AcDbArc
50
70
51
219.99999999999977
0
LINE
5
163
100
AcDbEntity
8
CUTOUTS
100
AcDbLine
10
77.567026001287033
20
-10.934312121276509
30
0
11
56.490461171940076
21
14.183759733642528
31
0
0
ARC
5
164
100
AcDbEntity
8
CUTOUTS
100
AcDbCircle
10
80.573750440529011
20
-8.411370753256854
30
0
40
3.9249999999999803
210
0
220
0
230
1
100
AcDbArc
50
219.99999999999994
51
349.5275138087373
0
ARC
5
165
100
AcDbEntity
8
CUTOUTS
100
AcDbCircle
10
1.0270895245412248e-10
20
5.4695137308158337e-12
30
0
40
84.924999999898461
210
-0
220
0
230
1
100
AcDbArc
50
353.83193102424076
51
354.24864534586919
0
LINE
5
166
100
AcDbEntity
8
CUTOUTS
100
AcDbLine
10
84.825316218886272
20
4.1135572642117255
30
0
11
84.497500221573048
21
-8.510468923936223
31
0
0
ARC
5
167
100
AcDbEntity
8
CUTOUTS
100
AcDbCircle
10
1.0270895245412248e-10
20
5.4695137308158337e-12
30
0
40
84.924999999897153
210
0
220
-0
230
1
100
AcDbArc
50
2.7763524248629454
51
3.3047399406316353
0
ARC
5
168
100
AcDbEntity
8
CUTOUTS
100
AcDbCircle
10
71.319301255018928
20
-36.275443360455107
30
0
40
4.9250000000000806
210
-0
220
0
230
1
100
AcDbArc
50
-22.39904819350452
51
40.000000000000007
0
LINE
5
169
100
AcDbEntity
8
CUTOUTS
100
AcDbLine
10
59.384444790772363
20
-14.390095444805397
30
0
11
75.092070137379949
21
-33.109714382748848
31
0
0
ARC
5
16A
100
AcDbEntity
8
CUTOUTS
100
AcDbCircle
10
57.909809237768322
20
-15.627461593451972
30
0
40
1.9249999999999969
210
0
220
-0
230
1
100
AcDbArc
50
39.999999999999545
51
190.00000000000023
0
LINE
5
16B
100
AcDbEntity
8
CUTOUTS
100
AcDbLine
10
61.707858952484386
20
-48.252905070577114
30
0
11
56.01405431321983
21
-15.96173433546082
31
0
0
ARC
5
16C
100
AcDbEntity
8
CUTOUTS
100
AcDbCircle
10
65.573229383057281
20
-47.571335973234412
30
0
40
3.9249999999999825
210
0
220
0
230
1
100
AcDbArc
50
190.00000000000006
51
319.52751380872627
0
ARC
5
16D
100
AcDbEntity
8
CUTOUTS
100
AcDbCircle
10
1.0270895245412248e-10
20
5.4695137308158337e-12
30
0
40
84.924999999920317
210
-0
220
0
230
1
100
AcDbArc
50
323.83193102420751
51
324.24864534583241
0
LINE
5
16E
100
AcDbEntity
8
CUTOUTS
100
AcDbLine
10
75.517657361709439
20
-38.85021301871393
30
0
11
68.921747286193082
21
-49.619032397037103
31
0
0
ARC
5
16F
100
AcDbEntity
8
CUTOUTS
100
AcDbCircle
10
1.0270895245412248e-10
20
5.4695137308158337e-12
30
0
40
84.924999999911165
210
-0
220
0
230
1
100
AcDbArc
50
332.77635242482819
51
333.30473994059207
0
LINE
5
170
100
AcDbEntity
8
CUTOUTS
100
AcDbLine
10
44.233390056040662
20
-42.154410613470354
30
0
11
48.476783170359482
21
-66.219888836197455
31
0
0
ARC
5
171
100
AcDbEntity
8
CUTOUTS
100
AcDbCircle
10
42.337635131492164
20
-42.488683355479182
30
0
40
1.9249999999999958
210
0
220
-0
230
1
100
AcDbArc
50
9.9999999999996465
51
159.99999999999997
0
LINE
5
172
100
AcDbEntity
8
CUTOUTS
100
AcDbLine
10
29.314120930709969
20
-72.642171073760892
30
0
11
40.528726836479279
21
-41.83029457957727
31
0
0
ARC
5
173
100
AcDbEntity
8
CUTOUTS
100
AcDbCircle
10
33.002414467294656
20
-73.984600136314128
30
0
40
3.9249999999999909
210
0
220
0
230
1
100
AcDbArc
50
160.0000000000002
51
289.52751380874031
0
ARC
5
174
100
AcDbEntity
8
CUTOUTS
100
AcDbCircle
10
1.0270895245412248e-10
20
5.4695137308158337e-12
30
0
40
84.924999999963546
210
-0
220
0
230
1
100
AcDbArc
50
293.83193102418727
51
294.24864534581036
0
LINE
5
175
100
AcDbEntity
8
CUTOUTS
100
AcDbLine
10
45.975103200172278
20
-71.404100097497974
30
0
11
34.878467824532649
21
-77.432216210135437
31
0
0
ARC
5
176
100
AcDbEntity
8
CUTOUTS
100
AcDbCircle
10
1.0270895245412248e-10
20
5.4695137308158337e-12
30
0
40
84.924999999948994
210
-0
220
0
230
1
100
AcDbArc
50
302.77635242480278
51
303.30473994056263
0
ARC
5
177
100
AcDbEntity
8
CUTOUTS
100
AcDbCircle
10
43.626604986774275
20
-67.075106111207106
30
0
40
4.9250000000000806
210
-0
220
0
230
1
100
AcDbArc
50
-52.399048193558933
51
10.000000000000052
0
ARC
5
178
100
AcDbEntity
8
CUTOUTS
100
AcDbCircle
10
4.2441951438118544
20
-79.90204834722941
30
0
40
4.9250000000000256
210
-0
220
0
230
1
100
AcDbArc
50
277.60095180641946
51
340.00000000000045
0
LINE
5
179
100
AcDbEntity
8
CUTOUTS
100
AcDbLine
10
17.230034177301995
20
-58.62348550084603
30
0
11
8.8721813011824899
21
-81.586497553108302
31
0
0
ARC
5
17A
100
AcDbEntity
8
CUTOUTS
100
AcDbCircle
10
15.421125882289122
20
-57.965096724944118
30
0
40
1.925
210
-0
220
0
230
1
100
AcDbArc
50
-19.999999999999979
51
129.9999999999998
0
LINE
5
17B
100
AcDbEntity
8
CUTOUTS
100
AcDbLine
10
-10.934312121276509
20
-77.567026001287033
30
0
11
14.183759733642528
21
-56.490461171940076
31
0
0
ARC
5
17C
100
AcDbEntity
8
CUTOUTS
100
AcDbCircle
10
-8.411370753256854
20
-80.573750440529011
30
0
40
3.9249999999999803
210
0
220
0
230
1
100
AcDbArc
50
129.99999999999997
51
259.52751380873406
0
ARC
5
17D
100
AcDbEntity
8
CUTOUTS
100
AcDbCircle
10
1.0270895245412248e-10
20
5.4695137308158337e-12
30
0
40
84.925000000016524
210
0
220
0
230
1
100
AcDbArc
50
263.83193102418323
51
264.24864534580814
0
LINE
5
17E
100
AcDbEntity
8
CUTOUTS
100
AcDbLine
10
4.1135572642117237
20
-84.825316218886272
30
0
11
-8.5104689239448987
21
-84.497500221572807
31
0
0
ARC
5
17F
100
AcDbEntity
8
CUTOUTS
100
AcDbCircle
10
1.0270895245412248e-10
20
5.4695137308158337e-12
30
0
40
84.925000000000495
210
-0
220
0
230
1
100
AcDbArc
50
272.7763524247938
51
273.3047399405537
0
LINE
5
180
100
AcDbEntity
8
CUTOUTS
100
AcDbLine
10
-38.850213018714186
20
-75.517657361709325
30
0
11
-49.619032397032072
21
-68.921747286196165
31
0
0
ARC
5
181
100
AcDbEntity
8
CUTOUTS
100
AcDbCircle
10
1.0270895245412248e-10
20
5.4695137308158337e-12
30
0
40
84.925000000051853
210
0
220
0
230
1
100
AcDbArc
50
242.77635242480304
51
243.30473994056348
0
ARC
5
182
100
AcDbEntity
8
CUTOUTS
100
AcDbCircle
10
-36.275443360455071
20
-71.319301255018971
30
0
40
4.925000000000062
210
0
220
0
230
1
100
AcDbArc
50
247.60095180644836
51
310.00000000000011
0
LINE
5
183
100
AcDbEntity
8
CUTOUTS
100
AcDbLine
10
-14.390095444805365
20
-59.38444479077237
30
0
11
-33.109714382748805
21
-75.092070137379977
31
0
0
ARC
5
184
100
AcDbEntity
8
CUTOUTS
100
AcDbCircle
10
-15.627461593451951
20
-57.909809237768343
30
0
40
1.9249999999999972
210
-0
220
0
230
1
100
AcDbArc
50
-49.999999999999936
51
100.0000000000001
0
LINE
5
185
100
AcDbEntity
8
CUTOUTS
100
AcDbLine
10
-48.252905070577079
20
-61.707858952484415
30
0
11
-15.961734335460793
21
-56.014054313219852
31
0
0
ARC
5
186
100
AcDbEntity
8
CUTOUTS
100
AcDbCircle
10
-47.571335973234376
20
-65.573229383057324
30
0
40
3.9249999999999909
210
0
220
0
230
1
100
AcDbArc
50
100.00000000000003
51
229.52751380874287
0
ARC
5
187
100
AcDbEntity
8
CUTOUTS
100
AcDbCircle
10
-7.6865624976107938e-10
20
-1.0630873958916709e-09
30
0
40
84.924999998688179
210
0
220
0
230
1
100
AcDbArc
50
233.83193102424764
51
234.2486453458838
0
ARC
5
188
100
AcDbEntity
8
CUTOUTS
100
AcDbCircle
10
-67.075106111207106
20
-43.626604986774275
30
0
40
4.9250000000000806
210
0
220
0
230
1
100
AcDbArc
50
217.60095180650578
51
280.00000000000011
0
LINE
5
189
100
AcDbEntity
8
CUTOUTS
100
AcDbLine
10
-42.154410613470354
20
-44.233390056040662
30
0
11
-66.219888836197455
21
-48.476783170359482
31
0
0
ARC
5
18A
100
AcDbEntity
8
CUTOUTS
100
AcDbCircle
10
-42.488683355479182
20
-42.337635131492164
30
0
40
1.9249999999999958
210
-0
220
0
230
1
100
AcDbArc
50
-80.000000000000369
51
69.999999999999972
0
LINE
5
18B
100
AcDbEntity
8
CUTOUTS
100
AcDbLine
10
-72.642171073760892
20
-29.314120930709969
30
0
11
-41.83029457957727
21
-40.528726836479279
31
0
0
ARC
5
18C
100
AcDbEntity
8
CUTOUTS
100
AcDbCircle
10
-73.984600136314128
20
-33.002414467294656
30
0
40
3.9249999999999909
210
0
220
-0
230
1
100
AcDbArc
50
70.000000000000156
51
199.52751380873127
0
ARC
5
18D
100
AcDbEntity
8
CUTOUTS
100
AcDbCircle
10
1.0270895245412248e-10
20
5.4695137308158337e-12
30
0
40
84.925000000096162
210
0
220
0
230
1
100
AcDbArc
50
203.83193102422703
51
204.24864534585453
0
LINE
5
18E
100
AcDbEntity
8
CUTOUTS
100
AcDbLine
10
-71.404100097498002
20
-45.975103200172185
30
0
11
-77.43221621013258
21
-34.878467824537886
31
0
0
ARC
5
18F
100
AcDbEntity
8
CUTOUTS
100
AcDbCircle
10
1.0270895245412248e-10
20
5.4695137308158337e-12
30
0
40
84.925000000089312
210
0
220
0
230
1
100
AcDbArc
50
212.77635242482859
51
213.30473994058977
0
ARC
5
190
100
AcDbEntity
8
CUTOUTS
100
AcDbCircle
10
-79.902048347229325
20
-4.2441951438118082
30
0
40
4.9250000000001135
210
0
220
0
230
1
100
AcDbArc
50
187.60095180656847
51
249.99999999999977
0
LINE
5
191
100
AcDbEntity
8
CUTOUTS
100
AcDbLine
10
-58.62348550084603
20
-17.230034177302006
30
0
11
-81.586497553108302
21
-8.8721813011825077
31
0
0
ARC
5
192
100
AcDbEntity
8
CUTOUTS
100
AcDbCircle
10
-57.965096724944118
20
-15.421125882289131
30
0
40
1.925
210
0
220
0
230
1
100
AcDbArc
50
-109.99999999999997
51
39.999999999999737
0
LINE
5
193
100
AcDbEntity
8
CUTOUTS
100
AcDbLine
10
-77.567026001287033
20
10.934312121276504
30
0
11
-56.490461171940076
21
-14.183759733642542
31
0
0
ARC
5
194
100
AcDbEntity
8
CUTOUTS
100
AcDbCircle
10
-80.573750440529011
20
8.4113707532568309
30
0
40
3.9249999999999923
210
0
220
-0
230
1
100
AcDbArc
50
40.000000000000171
51
169.52751380874062
0
ARC
5
195
100
AcDbEntity
8
CUTOUTS
100
AcDbCircle
10
1.0270895245412248e-10
20
5.4695137308158337e-12
30
0
40
84.92500000010152
210
0
220
0
230
1
100
AcDbArc
50
173.83193102426321
51
174.2486453458925
0
LINE
5
196
100
AcDbEntity
8
CUTOUTS
100
AcDbLine
10
-84.825316218886272
20
-4.1135572642117459
30
0
11
-84.497500221573162
21
8.5104689239327342
31
0
0
ARC
5
197
100
AcDbEntity
8
CUTOUTS
100
AcDbCircle
10
-1.3198508952427801e-09
20
-7.2052919186660347e-11
30
0
40
84.924999998678203
210
0
220
0
230
1
100
AcDbArc
50
182.77635242485769
51
183.30473994063416
0
LINE
5
198
100
AcDbEntity
8
CUTOUTS
100
AcDbLine
10
-59.38444479077237
20
14.390095444805365
30
0
11
-75.092070137379977
21
33.109714382748805
31
0
0
ARC
5
199
100
AcDbEntity
8
CUTOUTS
100
AcDbCircle
10
-57.909809237768343
20
15.627461593451951
30
0
40
1.9249999999999972
210
0
220
0
230
1
100
AcDbArc
50
-139.99999999999994
51
10.000000000000052
0
LINE
5
19A
100
AcDbEntity
8
CUTOUTS
100
AcDbLine
10
-61.707858952484415
20
48.252905070577079
30
0
11
-56.014054313219852
21
15.961734335460793
31
0
0
ARC
5
19B
100
AcDbEntity
8
CUTOUTS
100
AcDbCircle
10
-65.573229383057324
20
47.571335973234376
30
0
40
3.9249999999999909
210
0
220
-0
230
1
100
AcDbArc
50
9.9999999999999769
51
139.527513808733
0
ARC
5
19C
100
AcDbEntity
8
CUTOUTS
100
AcDbCircle
10
-1.3198508952427801e-09
20
-7.2052919186660347e-11
30
0
40
84.9249999989771
210
0
220
0
230
1
100
AcDbArc
50
143.83193102368699
51
144.24864534526554
0
LINE
5
19D
100
AcDbEntity
8
CUTOUTS
100
AcDbLine
10
-75.517657361709425
20
38.850213018714037
30
0
11
-68.921747286153305
21
49.619032397101968
31
0
0
ARC
5
19E
100
AcDbEntity
8
CUTOUTS
100
AcDbCircle
10
1.0270895245412248e-10
20
5.4695137308158337e-12
30
0
40
84.925000000088858
210
0
220
0
230
1
100
AcDbArc
50
152.77635242489802
51
153.30473994066958
0
ARC
5
19F
100
AcDbEntity
8
CUTOUTS
100
AcDbCircle
10
-71.319301255018971
20
36.275443360455071
30
0
40
4.9250000000000673
210
0
220
0
230
1
100
AcDbArc
50
157.6009518066397
51
220.00000000000023
0
ARC
5
1A0
100
AcDbEntity
8
CUTOUTS
100
AcDbCircle
10
-43.626604986774325
20
67.075106111207106
30
0
40
4.9250000000000496
210
0
220
0
230
1
100
AcDbArc
50
127.60095180669471
51
190.00000000000026
0
LINE
5
1A1
100
AcDbEntity
8
CUTOUTS
100
AcDbLine
10
-44.233390056040669
20
42.154410613470347
30
0
11
-48.476783170359489
21
66.219888836197441
31
0
0
ARC
5
1A2
100
AcDbEntity
8
CUTOUTS
100
AcDbCircle
10
-42.337635131492171
20
42.488683355479175
30
0
40
1.9249999999999958
210
0
220
0
230
1
100
AcDbArc
50
189.99999999999966
51
340.00000000000017
0
LINE
5
1A3
100
AcDbEntity
8
CUTOUTS
100
AcDbLine
10
-29.314120930709969
20
72.642171073760892
30
0
11
-40.528726836479279
21
41.830294579577263
31
0
0
ARC
5
1A4
100
AcDbEntity
8
CUTOUTS
100
AcDbCircle
10
-33.002414467294656
20
73.984600136314128
30
0
40
3.9249999999999878
210
-0
220
0
230
1
100
AcDbArc
50
-19.999999999999822
51
109.5275138087357
0
ARC
5
1A5
100
AcDbEntity
8
CUTOUTS
100
AcDbCircle
10
1.0270895245412248e-10
20
5.4695137308158337e-12
30
0
40
84.925000000036476
210
0
220
0
230
1
100
AcDbArc
50
113.83193102431677
51
114.24864534595213
0
LINE
5
1A6
100
AcDbEntity
8
CUTOUTS
100
AcDbLine
10
-45.975103200172526
20
71.404100097497775
30
0
11
-34.878467824549645
21
77.432216210126214
31
0
0
ARC
5
1A7
100
AcDbEntity
8
CUTOUTS
100
AcDbCircle
10
1.0270895245412248e-10
20
5.4695137308158337e-12
30
0
40
84.925000000051
210
0
220
0
230
1
100
AcDbArc
50
122.77635242492353
51
123.30473994069715
0
ARC
5
1A8
100
AcDbEntity
8
CUTOUTS
100
AcDbCircle
10
-4.2441951438119139
20
79.902048347229425
30
0
40
4.9249999999999874
210
0
220
0
230
1
100
AcDbArc
50
97.600951806565405
51
160.00000000000048
0
LINE
5
1A9
100
AcDbEntity
8
CUTOUTS
100
AcDbLine
10
-17.230034177302024
20
58.623485500846016
30
0
11
-8.872181301182529
21
81.586497553108302
31
0
0
ARC
5
1AA
100
AcDbEntity
8
CUTOUTS
100
AcDbCircle
10
-15.421125882289139
20
57.965096724944104
30
0
40
1.9250000000000083
210
0
220
0
230
1
100
AcDbArc
50
160.00000000000011
51
309.99999999999972
0
LINE
5
1AB
100
AcDbEntity
8
CUTOUTS
100
AcDbLine
10
10.934312121276484
20
77.567026001287033
30
0
11
-14.183759733642553
21
56.490461171940069
31
0
0
ARC
5
1AC
100
AcDbEntity
8
CUTOUTS
100
AcDbCircle
10
8.4113707532568114
20
80.573750440529011
30
0
40
3.9249999999999923
210
-0
220
0
230
1
100
AcDbArc
50
-49.999999999999837
51
79.527513808729324
0
ARC
5
1AD
100
AcDbEntity
8
CUTOUTS
100
AcDbCircle
10
1.0270895245412248e-10
20
5.4695137308158337e-12
30
0
40
84.924999999983498
210
0
220
-0
230
1
100
AcDbArc
50
83.831931024320085
51
84.248645345957172
0
LINE
5
1AE
100
AcDbEntity
8
CUTOUTS
100
AcDbLine
10
-4.113557264211769
20
84.825316218886272
30
0
11
8.5104689239243925
21
84.497500221573347
31
0
0
ARC
5
1AF
100
AcDbEntity
8
CUTOUTS
100
AcDbCircle
10
-6.6788241603887855e-11
20
1.2203749122363661e-09
30
0
40
84.924999998777807
210
0
220
0
230
1
100
AcDbArc
50
92.776352424858132
51
93.30473994063243
0
ARC
5
1B0
100
AcDbEntity
8
CUTOUTS
100
AcDbCircle
10
1.0270895245412248e-10
20
5.4695137308158337e-12
30
0
40
84.924999999948142
210
0
220
-0
230
1
100
AcDbArc
50
62.776352424923097
51
63.304739940697381
0
LINE
5
1B1
100
AcDbEntity
8
CUTOUTS
100
AcDbLine
10
38.850213018713859
20
75.517657361709482
30
0
11
49.619032397031816
21
68.921747286196307
31
0
0
ARC
5
1B2
100
AcDbEntity
8
CUTOUTS
100
AcDbCircle
10
-1.60972568608031e-09
20
-2.2169821534134826e-09
30
0
40
84.925000002739722
210
0
220
-0
230
1
100
AcDbArc
50
53.831931024257706
51
54.248645345872092
0
ARC
5
1B3
100
AcDbEntity
8
CUTOUTS
100
AcDbCircle
10
47.571335973234348
20
65.573229383057324
30
0
40
3.9249999999999909
210
-0
220
0
230
1
100
AcDbArc
50
-79.999999999999957
51
49.527513808732131
0
LINE
5
1B4
100
AcDbEntity
8
CUTOUTS
100
AcDbLine
10
48.25290507057705
20
61.707858952484422
30
0
11
15.961734335460784
21
56.014054313219852
31
0
0
ARC
5
1B5
100
AcDbEntity
8
CUTOUTS
100
AcDbCircle
10
15.62746159345194
20
57.909809237768343
30
0
40
1.9249999999999972
210
0
220
0
230
1
100
AcDbArc
50
130.00000000000003
51
280.00000000000011
0
LINE
5
1B6
100
AcDbEntity
8
CUTOUTS
100
AcDbLine
10
14.390095444805356
20
59.38444479077237
30
0
11
33.109714382748805
21
75.092070137379977
31
0
0
ARC
5
1B7
100
AcDbEntity
8
CUTOUTS
100
AcDbCircle
10
36.275443360455064
20
71.319301255018942
30
0
40
4.9250000000000798
210
0
220
-0
230
1
100
AcDbArc
50
67.600951806694084
51
129.99999999999991
0
LINE
5
1B8
100
AcDbEntity
8
CUTOUTS
100
AcDbLine
10
72.642171073760892
20
29.314120930709979
30
0
11
41.830294579577263
21
40.528726836479279
31
0
0
ARC
5
1B9
100
AcDbEntity
8
CUTOUTS
100
AcDbCircle
10
73.984600136314128
20
33.002414467294663
30
0
40
3.9249999999999838
210
0
220
0
230
1
100
AcDbArc
50
-109.99999999999989
51
19.527513808733577
0
ARC
5
1BA
100
AcDbEntity
8
CUTOUTS
100
AcDbCircle
10
1.0270895245412248e-10
20
5.4695137308158337e-12
30
0
40
84.924999999903832
210
0
220
-0
230
1
100
AcDbArc
50
23.831931024276415
51
24.248645345909132
0
LINE
5
1BB
100
AcDbEntity
8
CUTOUTS
100
AcDbLine
10
71.404100097498272
20
45.975103200171795
30
0
11
77.432216210129127
21
34.878467824544245
31
0
0
ARC
5
1BC
100
AcDbEntity
8
CUTOUTS
100
AcDbCircle
10
1.0270895245412248e-10
20
5.4695137308158337e-12
30
0
40
84.924999999910682
210
0
220
-0
230
1
100
AcDbArc
50
32.77635242489707
51
33.304739940670729
0
ARC
5
1BD
100
AcDbEntity
8
CUTOUTS
100
AcDbCircle
10
67.075106111207106
20
43.626604986774325
30
0
40
4.9250000000000469
210
0
220
-0
230
1
100
AcDbArc
50
37.600951806652283
51
100.0000000000003
0
LINE
5
1BE
100
AcDbEntity
8
CUTOUTS
100
AcDbLine
10
42.154410613470347
20
44.233390056040669
30
0
11
66.219888836197441
21
48.476783170359489
31
0
0
ARC
5
1BF
100
AcDbEntity
8
CUTOUTS
100
AcDbCircle
10
42.488683355479175
20
42.337635131492171
30
0
40
1.9249999999999958
210
0
220
0
230
1
100
AcDbArc
50
99.999999999999631
51
250.00000000000017
0
ARC
5
1C0
100
AcDbEntity
8
CUTOUTS
100
AcDbCircle
10
-0.71500000000001429
20
-34.792819149373379
30
0
40
0.72500000000000542
210
0
220
0
230
1
100
AcDbArc
50
180
51
269.99999999999972
0
LINE
5
1C1
100
AcDbEntity
8
CUTOUTS
100
AcDbLine
10
0.71499999999997732
20
-35.517819149373381
30
0
11
-0.71500000000001784
21
-35.517819149373381
31
0
0
ARC
5
1C2
100
AcDbEntity
8
CUTOUTS
100
AcDbCircle
10
0.7149999999999801
20
-34.792819149373386
30
0
40
0.72499999999999787
210
0
220
0
230
1
100
AcDbArc
50
-90.000000000000199
51
0
0
LINE
5
1C3
100
AcDbEntity
8
CUTOUTS
100
AcDbLine
10
1.4400000000000102
20
-33.578066240954215
30
0
11
1.4399999999999809
21
-34.792819149373379
31
0
0
ARC
5
1C4
100
AcDbEntity
8
CUTOUTS
100
AcDbCircle
10
2.5149999999999824
20
-33.578066240954215
30
0
40
1.0749999999999762
210
0
220
0
230
1
100
AcDbArc
50
98.409983341710159
51
180
0
ARC
5
1C5
100
AcDbEntity
8
CUTOUTS
100
AcDbCircle
10
1.0270895245412248e-10
20
5.4695137308158337e-12
30
0
40
32.599999999998019
210
-0
220
0
230
1
100
AcDbArc
50
274.14750406611802
51
279.69864977991062
0
ARC
5
1C6
100
AcDbEntity
8
CUTOUTS
100
AcDbCircle
10
5.5938385571190308
20
-33.204227557327656
30
0
40
1.0750000000000004
210
0
220
-0
230
1
100
AcDbArc
50
13.84615384615401
51
95.436170497290107
0
LINE
5
1C7
100
AcDbEntity
8
CUTOUTS
100
AcDbLine
10
6.9283104100756123
20
-34.126417614842623
30
0
11
6.6376010108520358
21
-32.946963218218528
31
0
0
ARC
5
1C8
100
AcDbEntity
8
CUTOUTS
100
AcDbCircle
10
7.6322432277095054
20
-33.952913758234139
30
0
40
0.72500000000000575
210
0
220
0
230
1
100
AcDbArc
50
193.84615384615404
51
283.84615384615341
0
LINE
5
1C9
100
AcDbEntity
8
CUTOUTS
100
AcDbLine
10
9.1941938832372294
20
-34.314625175936825
30
0
11
7.8057470843179804
21
-34.656846575868038
31
0
0
ARC
5
1CA
100
AcDbEntity
8
CUTOUTS
100
AcDbCircle
10
9.0206900266287473
20
-33.610692358302934
30
0
40
0.72500000000000497
210
-0
220
0
230
1
100
AcDbArc
50
-76.153846153846018
51
13.846153846154117
0
LINE
5
1CB
100
AcDbEntity
8
CUTOUTS
100
AcDbLine
10
9.4339134450390372
20
-32.257734105070377
30
0
11
9.7246228442626421
21
-33.43718850169445
31
0
0
ARC
5
1CC
100
AcDbEntity
8
CUTOUTS
100
AcDbCircle
10
10.477675898772072
20
-32.000469765961242
30
0
40
1.0750000000000439
210
0
220
0
230
1
100
AcDbArc
50
112.25613718790954
51
193.84615384615378
0
ARC
5
1CD
100
AcDbEntity
8
CUTOUTS
100
AcDbCircle
10
1.0270895245412248e-10
20
5.4695137308158337e-12
30
0
40
32.599999999973463
210
-0
220
0
230
1
100
AcDbArc
50
287.99365791227643
51
293.54480362606353
0
ARC
5
1CE
100
AcDbEntity
8
CUTOUTS
100
AcDbCircle
10
13.377583550074181
20
-30.900679860525614
30
0
40
1.0749999999999975
210
0
220
-0
230
1
100
AcDbArc
50
27.69230769230753
51
109.28232434378369
0
LINE
5
1CF
100
AcDbEntity
8
CUTOUTS
100
AcDbLine
10
14.89397260250133
20
-31.476712733018083
30
0
11
14.329448777651381
21
-30.401102450578566
31
0
0
ARC
5
1D0
100
AcDbEntity
8
CUTOUTS
100
AcDbCircle
10
15.535928221099908
20
-31.139788433286352
30
0
40
0.72499999999999887
210
0
220
0
230
1
100
AcDbArc
50
207.69230769230754
51
297.69230769230813
0
LINE
5
1D1
100
AcDbEntity
8
CUTOUTS
100
AcDbLine
10
17.139054637515731
20
-31.11718991586234
30
0
11
15.872852520831644
21
-31.781744051884928
31
0
0
ARC
5
1D2
100
AcDbEntity
8
CUTOUTS
100
AcDbCircle
10
16.802130337784
20
-30.475234297263757
30
0
40
0.72500000000000575
210
-0
220
0
230
1
100
AcDbArc
50
-62.307692307692633
51
27.692307692307363
0
LINE
5
1D3
100
AcDbEntity
8
CUTOUTS
100
AcDbLine
10
16.879562131532666
20
-29.062699715092499
30
0
11
17.444085956382573
21
-30.13830999753203
31
0
0
ARC
5
1D4
100
AcDbEntity
8
CUTOUTS
100
AcDbCircle
10
17.831427359109828
20
-28.563122305145463
30
0
40
1.0749999999999373
210
0
220
0
230
1
100
AcDbArc
50
126.10229103399494
51
207.69230769230779
0
ARC
5
1D5
100
AcDbEntity
8
CUTOUTS
100
AcDbCircle
10
1.0270895245412248e-10
20
5.4695137308158337e-12
30
0
40
32.599999999950462
210
-0
220
0
230
1
100
AcDbArc
50
301.83981175844877
51
307.39095747221432
0
ARC
5
1D6
100
AcDbEntity
8
CUTOUTS
100
AcDbCircle
10
20.383872012636726
20
-26.801296969631053
30
0
40
1.0749999999999988
210
0
220
-0
230
1
100
AcDbArc
50
41.538461538461632
51
123.1284781906445
0
LINE
5
1D7
100
AcDbEntity
8
CUTOUTS
100
AcDbLine
10
21.994051244657314
20
-26.997695720346051
30
0
11
21.188521066920657
21
-26.088440112022198
31
0
0
ARC
5
1D8
100
AcDbEntity
8
CUTOUTS
100
AcDbCircle
10
22.53672153708137
20
-26.516931793121476
30
0
40
0.7250000000000032
210
0
220
0
230
1
100
AcDbArc
50
221.53846153846109
51
311.53846153846132
0
LINE
5
1D9
100
AcDbEntity
8
CUTOUTS
100
AcDbLine
10
24.087855834190613
20
-26.11133668426119
30
0
11
23.017485464305945
21
-27.059602085545524
31
0
0
ARC
5
1DA
100
AcDbEntity
8
CUTOUTS
100
AcDbCircle
10
23.607091906966037
20
-25.568666391837141
30
0
40
0.72499999999999987
210
-0
220
0
230
1
100
AcDbArc
50
-48.461538461538545
51
41.538461538461689
0
LINE
5
1DB
100
AcDbEntity
8
CUTOUTS
100
AcDbLine
10
23.344232021653472
20
-24.178646856288669
30
0
11
24.149762199390086
21
-25.087902464612561
31
0
0
ARC
5
1DC
100
AcDbEntity
8
CUTOUTS
100
AcDbCircle
10
24.148881075937364
20
-23.465789998679853
30
0
40
1.0749999999999347
210
0
220
0
230
1
100
AcDbArc
50
139.94844488014218
51
221.53846153846143
0
ARC
5
1DD
100
AcDbEntity
8
CUTOUTS
100
AcDbCircle
10
1.0270895245412248e-10
20
5.4695137308158337e-12
30
0
40
32.599999999930326
210
-0
220
0
230
1
100
AcDbArc
50
315.68596560462822
51
321.237111318362
0
ARC
5
1DE
100
AcDbEntity
8
CUTOUTS
100
AcDbCircle
10
26.205523926184906
20
-21.144320117612189
30
0
40
1.0750000000000002
210
0
220
-0
230
1
100
AcDbArc
50
55.384615384615358
51
136.9746320378602
0
LINE
5
1DF
100
AcDbEntity
8
CUTOUTS
100
AcDbLine
10
27.81591557359727
20
-20.949670765038579
30
0
11
26.816193528920898
21
-20.259612461776509
31
0
0
ARC
5
1E0
100
AcDbEntity
8
CUTOUTS
100
AcDbCircle
10
28.227762514977357
20
-20.35300746226568
30
0
40
0.72499999999999853
210
0
220
0
230
1
100
AcDbArc
50
235.38461538461533
51
325.38461538461542
0
LINE
5
1E1
100
AcDbEntity
8
CUTOUTS
100
AcDbLine
10
29.636758405575812
20
-19.587987475417844
30
0
11
28.82442581775026
21
-20.764854403645767
31
0
0
ARC
5
1E2
100
AcDbEntity
8
CUTOUTS
100
AcDbCircle
10
29.040095102802901
20
-19.176140534037753
30
0
40
0.72500000000000719
210
-0
220
0
230
1
100
AcDbArc
50
-34.615384615384407
51
55.38461538461506
0
LINE
5
1E3
100
AcDbEntity
8
CUTOUTS
100
AcDbLine
10
28.452219999506617
20
-17.88941892800278
30
0
11
29.451942044182999
21
-18.57947723126485
31
0
0
ARC
5
1E4
100
AcDbEntity
8
CUTOUTS
100
AcDbCircle
10
29.06288960224262
20
-17.004711272167096
30
0
40
1.0750000000000086
210
0
220
0
230
1
100
AcDbArc
50
153.79459872634862
51
235.38461538461499
0
ARC
5
1E5
100
AcDbEntity
8
CUTOUTS
100
AcDbCircle
10
1.0270895245412248e-10
20
5.4695137308158337e-12
30
0
40
32.599999999914232
210
-0
220
0
230
1
100
AcDbArc
50
329.53211945081352
51
335.08326516450637
0
ARC
5
1E6
100
AcDbEntity
8
CUTOUTS
100
AcDbCircle
10
30.50420604234699
20
-14.2585122368342
30
0
40
1.074999999999998
210
0
220
-0
230
1
100
AcDbArc
50
69.230769230769056
51
150.82078588538485
0
LINE
5
1E7
100
AcDbEntity
8
CUTOUTS
100
AcDbLine
10
32.021219996138989
20
-13.684127093821951
30
0
11
30.885406295917718
21
-13.25336977594738
31
0
0
ARC
5
1E8
100
AcDbEntity
8
CUTOUTS
100
AcDbCircle
10
32.278308539244819
20
-13.006240317875015
30
0
40
0.72500000000000875
210
0
220
0
230
1
100
AcDbArc
50
249.23076923077014
51
339.23076923076889
0
LINE
5
1E9
100
AcDbEntity
8
CUTOUTS
100
AcDbLine
10
33.463280303662579
20
-11.926255633940723
30
0
11
32.956195315191756
21
-13.26332886098086
31
0
0
ARC
5
1EA
100
AcDbEntity
8
CUTOUTS
100
AcDbCircle
10
32.785393527715655
20
-11.669167090834883
30
0
40
0.72500000000000475
210
-0
220
0
230
1
100
AcDbArc
50
-20.76923076923098
51
69.230769230769454
0
LINE
5
1EB
100
AcDbEntity
8
CUTOUTS
100
AcDbLine
10
31.906668370600222
20
-10.560522997013377
30
0
11
33.042482070821492
21
-10.991280314887955
31
0
0
ARC
5
1EC
100
AcDbEntity
8
CUTOUTS
100
AcDbCircle
10
32.287868624170947
20
-9.5553805361265631
30
0
40
1.0750000000000042
210
0
220
0
230
1
100
AcDbArc
50
167.64075257250221
51
249.23076923076911
0
ARC
5
1ED
100
AcDbEntity
8
CUTOUTS
100
AcDbCircle
10
1.0270895245412248e-10
20
5.4695137308158337e-12
30
0
40
32.599999999903147
210
-0
220
0
230
1
100
AcDbArc
50
343.37827329700633
51
348.92941901064916
0
ARC
5
1EE
100
AcDbEntity
8
CUTOUTS
100
AcDbCircle
10
33.03009458160539
20
-6.5440514524345925
30
0
40
1.074999999999998
210
0
220
-0
230
1
100
AcDbArc
50
83.076923076923123
51
164.66693973310822
0
LINE
5
1EF
100
AcDbEntity
8
CUTOUTS
100
AcDbLine
10
34.365567504903993
20
-5.6233116956905338
30
0
11
33.159671512879861
21
-5.4768894127791867
31
0
0
ARC
5
1F0
100
AcDbEntity
8
CUTOUTS
100
AcDbCircle
10
34.452956598089109
20
-4.9035977619694453
30
0
40
0.7250000000000002
210
0
220
0
230
1
100
AcDbArc
50
263.07692307692247
51
353.07692307692326
0
LINE
5
1F1
100
AcDbEntity
8
CUTOUTS
100
AcDbLine
10
35.345037984575313
20
-3.5714131651943393
30
0
11
35.172670531810198
21
-4.990986855154552
31
0
0
ARC
5
1F2
100
AcDbEntity
8
CUTOUTS
100
AcDbCircle
10
34.625324050854218
20
-3.4840240720092268
30
0
40
0.72500000000000231
210
-0
220
0
230
1
100
AcDbArc
50
-6.9230769230770957
51
83.076923076923094
0
LINE
5
1F3
100
AcDbEntity
8
CUTOUTS
100
AcDbLine
10
33.506817152015195
20
-2.6178878553767939
30
0
11
34.712713144039327
21
-2.7643101382881379
31
0
0
ARC
5
1F4
100
AcDbEntity
8
CUTOUTS
100
AcDbCircle
10
33.636394083289666
20
-1.5507258157213815
30
0
40
1.0750000000000026
210
0
220
0
230
1
100
AcDbArc
50
181.48690641865193
51
263.07692307692315
0
ARC
5
1F5
100
AcDbEntity
8
CUTOUTS
100
AcDbCircle
10
1.0270895245412248e-10
20
5.4695137308158337e-12
30
0
40
32.599999999897676
210
-0
220
0
230
1
100
AcDbArc
50
-2.775572856797186
51
2.7755728567899687
0
ARC
5
1F6
100
AcDbEntity
8
CUTOUTS
100
AcDbCircle
10
33.636394083289673
20
1.5507258157213175
30
0
40
1.0749999999999991
210
0
220
0
230
1
100
AcDbArc
50
96.923076923077247
51
178.5130935809747
0
LINE
5
1F7
100
AcDbEntity
8
CUTOUTS
100
AcDbLine
10
34.712713144039327
20
2.7643101382880673
30
0
11
33.506817152015195
21
2.6178878553767242
31
0
0
ARC
5
1F8
100
AcDbEntity
8
CUTOUTS
100
AcDbCircle
10
34.625324050854218
20
3.4840240720091571
30
0
40
0.72499999999999964
210
-0
220
0
230
1
100
AcDbArc
50
-83.076923076923052
51
6.9230769230768274
0
LINE
5
1F9
100
AcDbEntity
8
CUTOUTS
100
AcDbLine
10
35.172670531810205
20
4.99098685515448
30
0
11
35.345037984575313
21
3.5714131651942669
31
0
0
ARC
5
1FA
100
AcDbEntity
8
CUTOUTS
100
AcDbCircle
10
34.452956598089109
20
4.9035977619693725
30
0
40
0.7250000000000062
210
0
220
-0
230
1
100
AcDbArc
50
6.9230769230766693
51
96.923076923076863
0
LINE
5
1FB
100
AcDbEntity
8
CUTOUTS
100
AcDbLine
10
33.159671512879861
20
5.4768894127791432
30
0
11
34.365567504904
21
5.6233116956904627
31
0
0
ARC
5
1FC
100
AcDbEntity
8
CUTOUTS
100
AcDbCircle
10
33.030094581605397
20
6.5440514524345286
30
0
40
1.0749999999999735
210
0
220
0
230
1
100
AcDbArc
50
195.33306026481137
51
276.92307692307662
0
ARC
5
1FD
100
AcDbEntity
8
CUTOUTS
100
AcDbCircle
10
1.0270895245412248e-10
20
5.4695137308158337e-12
30
0
40
32.599999999898174
210
0
220
-0
230
1
100
AcDbArc
50
11.070580989400055
51
16.621726702931792
0
ARC
5
1FE
100
AcDbEntity
8
CUTOUTS
100
AcDbCircle
10
32.287868624170962
20
9.5553805361265152
30
0
40
1.0749999999999968
210
0
220
0
230
1
100
AcDbArc
50
110.76923076923097
51
192.35924742881468
0
LINE
5
1FF
100
AcDbEntity
8
CUTOUTS
100
AcDbLine
10
33.042482070821507
20
10.991280314887904
30
0
11
31.906668370600233
21
10.560522997013333
31
0
0
ARC
5
200
100
AcDbEntity
8
CUTOUTS
100
AcDbCircle
10
32.785393527715676
20
11.669167090834829
30
0
40
0.72499999999999665
210
-0
220
0
230
1
100
AcDbArc
50
-69.230769230769837
51
20.769230769231203
0
LINE
5
201
100
AcDbEntity
8
CUTOUTS
100
AcDbLine
10
32.956195315191778
20
13.263328860980812
30
0
11
33.4632803036626
21
11.926255633940672
31
0
0
ARC
5
202
100
AcDbEntity
8
CUTOUTS
100
AcDbCircle
10
32.278308539244847
20
13.006240317874973
30
0
40
0.72500000000000397
210
0
220
-0
230
1
100
AcDbArc
50
20.769230769230678
51
110.76923076923106
0
LINE
5
203
100
AcDbEntity
8
CUTOUTS
100
AcDbLine
10
30.885406295917733
20
13.253369775947338
30
0
11
32.021219996139003
21
13.6841270938219
31
0
0
ARC
5
204
100
AcDbEntity
8
CUTOUTS
100
AcDbCircle
10
30.504206042347008
20
14.25851223683415
30
0
40
1.0749999999999673
210
0
220
0
230
1
100
AcDbArc
50
209.17921411095185
51
290.769230769231
0
ARC
5
205
100
AcDbEntity
8
CUTOUTS
100
AcDbCircle
10
1.0270895245412248e-10
20
5.4695137308158337e-12
30
0
40
32.599999999904568
210
0
220
-0
230
1
100
AcDbArc
50
24.916734835596483
51
30.467880549072191
0
ARC
5
206
100
AcDbEntity
8
CUTOUTS
100
AcDbCircle
10
29.062889602242645
20
17.004711272167064
30
0
40
1.0749999999999966
210
0
220
0
230
1
100
AcDbArc
50
124.61538461538476
51
206.20540127662241
0
LINE
5
207
100
AcDbEntity
8
CUTOUTS
100
AcDbLine
10
29.451942044183021
20
18.579477231264814
30
0
11
28.452219999506653
21
17.88941892800274
31
0
0
ARC
5
208
100
AcDbEntity
8
CUTOUTS
100
AcDbCircle
10
29.040095102802937
20
19.176140534037714
30
0
40
0.72499999999999609
210
-0
220
0
230
1
100
AcDbArc
50
-55.384615384615593
51
34.615384615384791
0
LINE
5
209
100
AcDbEntity
8
CUTOUTS
100
AcDbLine
10
28.824425817750292
20
20.764854403645732
30
0
11
29.636758405575844
21
19.587987475417805
31
0
0
ARC
5
20A
100
AcDbEntity
8
CUTOUTS
100
AcDbCircle
10
28.227762514977385
20
20.353007462265641
30
0
40
0.72500000000000842
210
0
220
-0
230
1
100
AcDbArc
50
34.615384615384542
51
124.6153846153848
0
LINE
5
20B
100
AcDbEntity
8
CUTOUTS
100
AcDbLine
10
26.816193528920934
20
20.25961246177647
30
0
11
27.815915573597291
21
20.949670765038544
31
0
0
ARC
5
20C
100
AcDbEntity
8
CUTOUTS
100
AcDbCircle
10
26.205523926184931
20
21.144320117612153
30
0
40
1.0750000000000084
210
0
220
0
230
1
100
AcDbArc
50
223.02536795711652
51
304.61538461538498
0
ARC
5
20D
100
AcDbEntity
8
CUTOUTS
100
AcDbCircle
10
1.0270895245412248e-10
20
5.4695137308158337e-12
30
0
40
32.599999999916477
210
0
220
-0
230
1
100
AcDbArc
50
38.762888681788148
51
44.314034395212957
0
ARC
5
20E
100
AcDbEntity
8
CUTOUTS
100
AcDbCircle
10
24.148881075937403
20
23.465789998679814
30
0
40
1.075000000000002
210
0
220
0
230
1
100
AcDbArc
50
138.46153846153851
51
220.05155512426276
0
LINE
5
20F
100
AcDbEntity
8
CUTOUTS
100
AcDbLine
10
24.149762199390125
20
25.087902464612522
30
0
11
23.344232021653468
21
24.178646856288669
31
0
0
ARC
5
210
100
AcDbEntity
8
CUTOUTS
100
AcDbCircle
10
23.607091906966076
20
25.568666391837098
30
0
40
0.72499999999999987
210
-0
220
0
230
1
100
AcDbArc
50
-41.538461538461455
51
48.461538461538311
0
LINE
5
211
100
AcDbEntity
8
CUTOUTS
100
AcDbLine
10
23.017485464305985
20
27.059602085545478
30
0
11
24.087855834190655
21
26.111336684261147
31
0
0
ARC
5
212
100
AcDbEntity
8
CUTOUTS
100
AcDbCircle
10
22.536721537081409
20
26.516931793121444
30
0
40
0.72499999999998987
210
0
220
-0
230
1
100
AcDbArc
50
48.461538461537785
51
138.46153846153916
0
LINE
5
213
100
AcDbEntity
8
CUTOUTS
100
AcDbLine
10
21.188521066920678
20
26.088440112022184
30
0
11
21.99405124465736
21
26.997695720346009
31
0
0
ARC
5
214
100
AcDbEntity
8
CUTOUTS
100
AcDbCircle
10
20.383872012636765
20
26.801296969631014
30
0
40
1.0749999999999635
210
0
220
0
230
1
100
AcDbArc
50
236.87152180325063
51
318.46153846153874
0
ARC
5
215
100
AcDbEntity
8
CUTOUTS
100
AcDbCircle
10
1.0270895245412248e-10
20
5.4695137308158337e-12
30
0
40
32.599999999933296
210
0
220
-0
230
1
100
AcDbArc
50
52.609042527974701
51
58.160188241356721
0
ARC
5
216
100
AcDbEntity
8
CUTOUTS
100
AcDbCircle
10
17.831427359109874
20
28.563122305145434
30
0
40
1.0749999999999975
210
0
220
0
230
1
100
AcDbArc
50
152.30769230769224
51
233.89770897161068
0
LINE
5
217
100
AcDbEntity
8
CUTOUTS
100
AcDbLine
10
17.444085956382626
20
30.138309997532001
30
0
11
16.879562131532676
21
29.062699715092485
31
0
0
ARC
5
218
100
AcDbEntity
8
CUTOUTS
100
AcDbCircle
10
16.80213033778405
20
30.475234297263736
30
0
40
0.72499999999999698
210
-0
220
0
230
1
100
AcDbArc
50
-27.692307692307875
51
62.307692307692754
0
LINE
5
219
100
AcDbEntity
8
CUTOUTS
100
AcDbLine
10
15.872852520831692
20
31.781744051884907
30
0
11
17.139054637515784
21
31.117189915862319
31
0
0
ARC
5
21A
100
AcDbEntity
8
CUTOUTS
100
AcDbCircle
10
15.535928221099958
20
31.139788433286327
30
0
40
0.72500000000000386
210
0
220
-0
230
1
100
AcDbArc
50
62.307692307692257
51
152.30769230769224
0
LINE
5
21B
100
AcDbEntity
8
CUTOUTS
100
AcDbLine
10
14.329448777651383
20
30.401102450578566
30
0
11
14.893972602501384
21
31.476712733018061
31
0
0
ARC
5
21C
100
AcDbEntity
8
CUTOUTS
100
AcDbCircle
10
13.377583550074231
20
30.900679860525596
30
0
40
1.0749999999999496
210
0
220
0
230
1
100
AcDbArc
50
250.71767564939989
51
332.30769230769215
0
ARC
5
21D
100
AcDbEntity
8
CUTOUTS
100
AcDbCircle
10
1.0270895245412248e-10
20
5.4695137308158337e-12
30
0
40
32.599999999953965
210
0
220
-0
230
1
100
AcDbArc
50
66.455196374152749
51
72.006342087501935
0
ARC
5
21E
100
AcDbEntity
8
CUTOUTS
100
AcDbCircle
10
10.477675898772139
20
32.000469765961228
30
0
40
1.0749999999999984
210
0
220
0
230
1
100
AcDbArc
50
166.15384615384636
51
247.74386281864599
0
LINE
5
21F
100
AcDbEntity
8
CUTOUTS
100
AcDbLine
10
9.7246228442627114
20
33.437188501694436
30
0
11
9.4339134450391331
21
32.257734105070348
31
0
0
ARC
5
220
100
AcDbEntity
8
CUTOUTS
100
AcDbCircle
10
9.0206900266288219
20
33.61069235830292
30
0
40
0.72500000000000253
210
-0
220
0
230
1
100
AcDbArc
50
-13.846153846154142
51
76.153846153846146
0
LINE
5
221
100
AcDbEntity
8
CUTOUTS
100
AcDbLine
10
7.8057470843180532
20
34.656846575868023
30
0
11
9.194193883237304
21
34.314625175936811
31
0
0
ARC
5
222
100
AcDbEntity
8
CUTOUTS
100
AcDbCircle
10
7.6322432277095711
20
33.952913758234132
30
0
40
0.72500000000000497
210
0
220
-0
230
1
100
AcDbArc
50
76.153846153846018
51
166.15384615384647
0
LINE
5
223
100
AcDbEntity
8
CUTOUTS
100
AcDbLine
10
6.6376010108521317
20
32.946963218218514
30
0
11
6.9283104100756834
21
34.126417614842609
31
0
0
ARC
5
224
100
AcDbEntity
8
CUTOUTS
100
AcDbCircle
10
5.5938385571190974
20
33.204227557327648
30
0
40
1.0750000000000357
210
0
220
0
230
1
100
AcDbArc
50
264.56382949560896
51
346.15384615384573
0
ARC
5
225
100
AcDbEntity
8
CUTOUTS
100
AcDbCircle
10
1.0270895245412248e-10
20
5.4695137308158337e-12
30
0
40
32.599999999977307
210
0
220
-0
230
1
100
AcDbArc
50
80.301350220319421
51
85.852495933649891
0
ARC
5
226
100
AcDbEntity
8
CUTOUTS
100
AcDbCircle
10
2.5150000000000134
20
33.578066240954215
30
0
40
1.074999999999998
210
0
220
0
230
1
100
AcDbArc
50
180
51
261.59001666530258
0
LINE
5
227
100
AcDbEntity
8
CUTOUTS
100
AcDbLine
10
1.440000000000015
20
34.792819149373379
30
0
11
1.4400000000000155
21
33.578066240954215
31
0
0
ARC
5
228
100
AcDbEntity
8
CUTOUTS
100
AcDbCircle
10
0.71500000000000963
20
34.792819149373379
30
0
40
0.72500000000000553
210
0
220
-0
230
1
100
AcDbArc
50
0
51
89.999999999999659
0
LINE
5
229
100
AcDbEntity
8
CUTOUTS
100
AcDbLine
10
-0.71499999999998176
20
35.517819149373381
30
0
11
0.71500000000001396
21
35.517819149373381
31
0
0
ARC
5
22A
100
AcDbEntity
8
CUTOUTS
100
AcDbCircle
10
-0.71499999999998465
20
34.792819149373386
30
0
40
0.72499999999999787
210
0
220
-0
230
1
100
AcDbArc
50
89.999999999999773
51
180
0
LINE
5
22B
100
AcDbEntity
8
CUTOUTS
100
AcDbLine
10
-1.4399999999999507
20
33.578066240954215
30
0
11
-1.4399999999999848
21
34.792819149373379
31
0
0
ARC
5
22C
100
AcDbEntity
8
CUTOUTS
100
AcDbCircle
10
-2.5149999999999864
20
33.578066240954215
30
0
40
1.0750000000000253
210
-0
220
0
230
1
100
AcDbArc
50
-81.590016658231804
51
0
0
ARC
5
22D
100
AcDbEntity
8
CUTOUTS
100
AcDbCircle
10
1.0270895245412248e-10
20
5.4695137308158337e-12
30
0
40
32.600000000001998
210
0
220
0
230
1
100
AcDbArc
50
94.14750406647758
51
99.698649779801414
0
ARC
5
22E
100
AcDbEntity
8
CUTOUTS
100
AcDbCircle
10
-5.5938385571190397
20
33.204227557327656
30
0
40
1.0749999999999995
210
0
220
0
230
1
100
AcDbArc
50
193.84615384615364
51
275.43617051153404
0
LINE
5
22F
100
AcDbEntity
8
CUTOUTS
100
AcDbLine
10
-6.9283104100756212
20
34.126417614842623
30
0
11
-6.6376010108520447
21
32.946963218218535
31
0
0
ARC
5
230
100
AcDbEntity
8
CUTOUTS
100
AcDbCircle
10
-7.6322432277095134
20
33.952913758234146
30
0
40
0.72500000000000364
210
0
220
-0
230
1
100
AcDbArc
50
13.846153846153557
51
103.84615384615357
0
LINE
5
231
100
AcDbEntity
8
CUTOUTS
100
AcDbLine
10
-9.1941938832372401
20
34.314625175936825
30
0
11
-7.8057470843179901
21
34.656846575868038
31
0
0
ARC
5
232
100
AcDbEntity
8
CUTOUTS
100
AcDbCircle
10
-9.0206900266287597
20
33.610692358302934
30
0
40
0.72500000000000453
210
0
220
0
230
1
100
AcDbArc
50
103.84615384615387
51
193.84615384615358
0
LINE
5
233
100
AcDbEntity
8
CUTOUTS
100
AcDbLine
10
-9.4339134450390212
20
32.257734105070377
30
0
11
-9.724622844262651
21
33.437188501694457
31
0
0
ARC
5
234
100
AcDbEntity
8
CUTOUTS
100
AcDbCircle
10
-10.47767589877208
20
32.000469765961242
30
0
40
1.0750000000000479
210
-0
220
0
230
1
100
AcDbArc
50
-67.743862812079897
51
13.846153846153744
0
ARC
5
235
100
AcDbEntity
8
CUTOUTS
100
AcDbCircle
10
1.0270895245412248e-10
20
5.4695137308158337e-12
30
0
40
32.600000000026526
210
0
220
0
230
1
100
AcDbArc
50
107.99365791262539
51
113.54480362595514
0
ARC
5
236
100
AcDbEntity
8
CUTOUTS
100
AcDbCircle
10
-13.377583550074183
20
30.900679860525617
30
0
40
1.0749999999999975
210
0
220
0
230
1
100
AcDbArc
50
207.69230769230751
51
289.28232435738255
0
LINE
5
237
100
AcDbEntity
8
CUTOUTS
100
AcDbLine
10
-14.893972602501332
20
31.476712733018086
30
0
11
-14.329448777651383
21
30.40110245057857
31
0
0
ARC
5
238
100
AcDbEntity
8
CUTOUTS
100
AcDbCircle
10
-15.535928221099908
20
31.139788433286352
30
0
40
0.72499999999999898
210
0
220
-0
230
1
100
AcDbArc
50
27.692307692307871
51
117.69230769230799
0
LINE
5
239
100
AcDbEntity
8
CUTOUTS
100
AcDbLine
10
-17.139054637515734
20
31.117189915862348
30
0
11
-15.872852520831646
21
31.781744051884932
31
0
0
ARC
5
23A
100
AcDbEntity
8
CUTOUTS
100
AcDbCircle
10
-16.802130337783993
20
30.475234297263761
30
0
40
0.72500000000001097
210
0
220
0
230
1
100
AcDbArc
50
117.69230769230799
51
207.69230769230722
0
LINE
5
23B
100
AcDbEntity
8
CUTOUTS
100
AcDbLine
10
-16.879562131532637
20
29.062699715092513
30
0
11
-17.444085956382576
21
30.13830999753203
31
0
0
ARC
5
23C
100
AcDbEntity
8
CUTOUTS
100
AcDbCircle
10
-17.831427359109831
20
28.563122305145466
30
0
40
1.0749999999999902
210
-0
220
0
230
1
100
AcDbArc
50
-53.897708965952162
51
27.692307692307416
0
ARC
5
23D
100
AcDbEntity
8
CUTOUTS
100
AcDbCircle
10
1.0270895245412248e-10
20
5.4695137308158337e-12
30
0
40
32.600000000049555
210
0
220
0
230
1
100
AcDbArc
50
121.83981175876389
51
127.39095747211337
0
ARC
5
23E
100
AcDbEntity
8
CUTOUTS
100
AcDbCircle
10
-20.383872012636726
20
26.801296969631039
30
0
40
1.075000000000002
210
0
220
0
230
1
100
AcDbArc
50
221.53846153846126
51
303.12847820279029
0
LINE
5
23F
100
AcDbEntity
8
CUTOUTS
100
AcDbLine
10
-21.994051244657321
20
26.997695720346041
30
0
11
-21.188521066920664
21
26.088440112022187
31
0
0
ARC
5
240
100
AcDbEntity
8
CUTOUTS
100
AcDbCircle
10
-22.53672153708137
20
26.516931793121465
30
0
40
0.72499999999999987
210
0
220
-0
230
1
100
AcDbArc
50
41.538461538461483
51
131.53846153846166
0
LINE
5
241
100
AcDbEntity
8
CUTOUTS
100
AcDbLine
10
-24.08785583419062
20
26.111336684261182
30
0
11
-23.017485464305949
21
27.059602085545514
31
0
0
ARC
5
242
100
AcDbEntity
8
CUTOUTS
100
AcDbCircle
10
-23.607091906966037
20
25.56866639183713
30
0
40
0.72500000000000608
210
0
220
0
230
1
100
AcDbArc
50
131.53846153846172
51
221.53846153846169
0
LINE
5
243
100
AcDbEntity
8
CUTOUTS
100
AcDbLine
10
-23.344232021653532
20
24.178646856288605
30
0
11
-24.149762199390086
21
25.087902464612554
31
0
0
ARC
5
244
100
AcDbEntity
8
CUTOUTS
100
AcDbCircle
10
-24.148881075937364
20
23.465789998679838
30
0
40
1.0749999999998554
210
-0
220
0
230
1
100
AcDbArc
50
-40.051555119902758
51
41.538461538461583
0
ARC
5
245
100
AcDbEntity
8
CUTOUTS
100
AcDbCircle
10
1.0270895245412248e-10
20
5.4695137308158337e-12
30
0
40
32.60000000006967
210
0
220
0
230
1
100
AcDbArc
50
135.68596560489573
51
141.2371113182725
0
ARC
5
246
100
AcDbEntity
8
CUTOUTS
100
AcDbCircle
10
-26.205523926184906
20
21.144320117612189
30
0
40
1.0750000000000002
210
0
220
0
230
1
100
AcDbArc
50
235.38461538461533
51
316.9746320479108
0
LINE
5
247
100
AcDbEntity
8
CUTOUTS
100
AcDbLine
10
-27.81591557359727
20
20.949670765038579
30
0
11
-26.816193528920898
21
20.259612461776509
31
0
0
ARC
5
248
100
AcDbEntity
8
CUTOUTS
100
AcDbCircle
10
-28.227762514977357
20
20.35300746226568
30
0
40
0.72499999999999853
210
0
220
-0
230
1
100
AcDbArc
50
55.384615384615358
51
145.38461538461539
0
LINE
5
249
100
AcDbEntity
8
CUTOUTS
100
AcDbLine
10
-29.636758405575812
20
19.587987475417844
30
0
11
-28.82442581775026
21
20.764854403645767
31
0
0
ARC
5
24A
100
AcDbEntity
8
CUTOUTS
100
AcDbCircle
10
-29.040095102802901
20
19.176140534037753
30
0
40
0.72500000000000719
210
0
220
0
230
1
100
AcDbArc
50
145.38461538461561
51
235.38461538461522
0
LINE
5
24B
100
AcDbEntity
8
CUTOUTS
100
AcDbLine
10
-28.452219999506646
20
17.88941892800274
30
0
11
-29.451942044182996
21
18.57947723126485
31
0
0
ARC
5
24C
100
AcDbEntity
8
CUTOUTS
100
AcDbCircle
10
-29.06288960224262
20
17.004711272167096
30
0
40
1.0749999999999564
210
-0
220
0
230
1
100
AcDbArc
50
-26.205401273664602
51
55.38461538461496
0
ARC
5
24D
100
AcDbEntity
8
CUTOUTS
100
AcDbCircle
10
1.0270895245412248e-10
20
5.4695137308158337e-12
30
0
40
32.600000000085778
210
0
220
0
230
1
100
AcDbArc
50
149.53211945101361
51
155.083265164436
0
ARC
5
24E
100
AcDbEntity
8
CUTOUTS
100
AcDbCircle
10
-30.50420604234699
20
14.258512236834186
30
0
40
1.0749999999999957
210
0
220
0
230
1
100
AcDbArc
50
249.23076923076903
51
330.82078589268133
0
LINE
5
24F
100
AcDbEntity
8
CUTOUTS
100
AcDbLine
10
-32.021219996138989
20
13.684127093821941
30
0
11
-30.885406295917718
21
13.25336977594737
31
0
0
ARC
5
250
100
AcDbEntity
8
CUTOUTS
100
AcDbCircle
10
-32.278308539244819
20
13.006240317875006
30
0
40
0.72500000000000664
210
0
220
-0
230
1
100
AcDbArc
50
69.230769230770065
51
159.23076923076883
0
LINE
5
251
100
AcDbEntity
8
CUTOUTS
100
AcDbLine
10
-33.463280303662579
20
11.926255633940714
30
0
11
-32.956195315191756
21
13.263328860980854
31
0
0
ARC
5
252
100
AcDbEntity
8
CUTOUTS
100
AcDbCircle
10
-32.785393527715648
20
11.669167090834874
30
0
40
0.72500000000000897
210
0
220
0
230
1
100
AcDbArc
50
159.2307692307692
51
249.23076923076897
0
LINE
5
253
100
AcDbEntity
8
CUTOUTS
100
AcDbLine
10
-31.90666837060018
20
10.560522997013461
30
0
11
-33.042482070821492
21
10.991280314887945
31
0
0
ARC
5
254
100
AcDbEntity
8
CUTOUTS
100
AcDbCircle
10
-32.287868624170947
20
9.5553805361265525
30
0
40
1.075000000000095
210
-0
220
0
230
1
100
AcDbArc
50
-12.359247427431431
51
69.230769230768772
0
ARC
5
255
100
AcDbEntity
8
CUTOUTS
100
AcDbCircle
10
1.0270895245412248e-10
20
5.4695137308158337e-12
30
0
40
32.600000000096848
210
0
220
0
230
1
100
AcDbArc
50
163.37827329712587
51
168.92941901060061
0
ARC
5
256
100
AcDbEntity
8
CUTOUTS
100
AcDbCircle
10
-33.030094581605397
20
6.5440514524345739
30
0
40
1.0749999999999973
210
0
220
0
230
1
100
AcDbArc
50
263.07692307692309
51
344.66693973727331
0
LINE
5
257
100
AcDbEntity
8
CUTOUTS
100
AcDbLine
10
-34.365567504904
20
5.6233116956905143
30
0
11
-33.159671512879868
21
5.476889412779169
31
0
0
ARC
5
258
100
AcDbEntity
8
CUTOUTS
100
AcDbCircle
10
-34.452956598089109
20
4.9035977619694195
30
0
40
0.72500000000000464
210
0
220
-0
230
1
100
AcDbArc
50
83.076923076923123
51
173.07692307692307
0
LINE
5
259
100
AcDbEntity
8
CUTOUTS
100
AcDbLine
10
-35.345037984575313
20
3.5714131651943193
30
0
11
-35.172670531810205
21
4.9909868551545298
31
0
0
ARC
5
25A
100
AcDbEntity
8
CUTOUTS
100
AcDbCircle
10
-34.625324050854218
20
3.4840240720092073
30
0
40
0.72500000000000231
210
0
220
0
230
1
100
AcDbArc
50
173.0769230769229
51
263.07692307692309
0
LINE
5
25B
100
AcDbEntity
8
CUTOUTS
100
AcDbLine
10
-33.506817152015188
20
2.6178878553768263
30
0
11
-34.712713144039327
21
2.7643101382881157
31
0
0
ARC
5
25C
100
AcDbEntity
8
CUTOUTS
100
AcDbCircle
10
-33.636394083289673
20
1.5507258157213624
30
0
40
1.0750000000000606
210
0
220
-0
230
1
100
AcDbArc
50
1.4869064186977838
51
83.076923076922782
0
ARC
5
25D
100
AcDbEntity
8
CUTOUTS
100
AcDbCircle
10
1.0270895245412248e-10
20
5.4695137308158337e-12
30
0
40
32.60000000010232
210
0
220
0
230
1
100
AcDbArc
50
177.22442714323816
51
182.77557285676698
0
ARC
5
25E
100
AcDbEntity
8
CUTOUTS
100
AcDbCircle
10
-33.636394083289673
20
-1.5507258157213322
30
0
40
1.0749999999999984
210
-0
220
0
230
1
100
AcDbArc
50
276.92307692307691
51
358.51309358172483
0
LINE
5
25F
100
AcDbEntity
8
CUTOUTS
100
AcDbLine
10
-34.712713144039327
20
-2.7643101382880833
30
0
11
-33.506817152015202
21
-2.6178878553767375
31
0
0
ARC
5
260
100
AcDbEntity
8
CUTOUTS
100
AcDbCircle
10
-34.625324050854218
20
-3.4840240720091744
30
0
40
0.72500000000000187
210
0
220
0
230
1
100
AcDbArc
50
96.92307692307692
51
186.92307692307685
0
LINE
5
261
100
AcDbEntity
8
CUTOUTS
100
AcDbLine
10
-35.172670531810212
20
-4.990986855154496
30
0
11
-35.345037984575313
21
-3.5714131651942846
31
0
0
ARC
5
262
100
AcDbEntity
8
CUTOUTS
100
AcDbCircle
10
-34.452956598089109
20
-4.9035977619693831
30
0
40
0.7250000000000113
210
0
220
0
230
1
100
AcDbArc
50
186.92307692307708
51
276.92307692307628
0
LINE
5
263
100
AcDbEntity
8
CUTOUTS
100
AcDbLine
10
-33.159671512879861
20
-5.4768894127791778
30
0
11
-34.365567504904007
21
-5.6233116956904805
31
0
0
ARC
5
264
100
AcDbEntity
8
CUTOUTS
100
AcDbCircle
10
-33.030094581605397
20
-6.5440514524345437
30
0
40
1.0749999999999644
210
0
220
-0
230
1
100
AcDbArc
50
15.333060264780164
51
96.923076923076692
0
ARC
5
265
100
AcDbEntity
8
CUTOUTS
100
AcDbCircle
10
1.0270895245412248e-10
20
5.4695137308158337e-12
30
0
40
32.600000000101844
210
0
220
0
230
1
100
AcDbArc
50
191.07058098935065
51
196.62172670293381
0
ARC
5
266
100
AcDbEntity
8
CUTOUTS
100
AcDbCircle
10
-32.287868624170962
20
-9.5553805361265134
30
0
40
1.074999999999994
210
-0
220
0
230
1
100
AcDbArc
50
-69.23076923076917
51
12.359247426171217
0
LINE
5
267
100
AcDbEntity
8
CUTOUTS
100
AcDbLine
10
-33.042482070821507
20
-10.991280314887904
30
0
11
-31.906668370600237
21
-10.560522997013329
31
0
0
ARC
5
268
100
AcDbEntity
8
CUTOUTS
100
AcDbCircle
10
-32.785393527715676
20
-11.669167090834829
30
0
40
0.72499999999999831
210
0
220
0
230
1
100
AcDbArc
50
110.76923076923016
51
200.76923076923072
0
LINE
5
269
100
AcDbEntity
8
CUTOUTS
100
AcDbLine
10
-32.956195315191778
20
-13.263328860980812
30
0
11
-33.4632803036626
21
-11.926255633940668
31
0
0
ARC
5
26A
100
AcDbEntity
8
CUTOUTS
100
AcDbCircle
10
-32.278308539244847
20
-13.006240317874978
30
0
40
0.72500000000000242
210
0
220
0
230
1
100
AcDbArc
50
200.76923076923026
51
290.76923076923066
0
LINE
5
26B
100
AcDbEntity
8
CUTOUTS
100
AcDbLine
10
-30.885406295917729
20
-13.253369775947352
30
0
11
-32.02121999613901
21
-13.6841270938219
31
0
0
ARC
5
26C
100
AcDbEntity
8
CUTOUTS
100
AcDbCircle
10
-30.504206042347015
20
-14.25851223683415
30
0
40
1.0749999999999831
210
0
220
-0
230
1
100
AcDbArc
50
29.179214110947871
51
110.7692307692305
0
ARC
5
26D
100
AcDbEntity
8
CUTOUTS
100
AcDbCircle
10
1.0270895245412248e-10
20
5.4695137308158337e-12
30
0
40
32.600000000095463
210
0
220
0
230
1
100
AcDbArc
50
204.91673483546191
51
210.46788054910147
0
ARC
5
26E
100
AcDbEntity
8
CUTOUTS
100
AcDbCircle
10
-29.062889602242645
20
-17.004711272167075
30
0
40
1.0750000000000002
210
-0
220
0
230
1
100
AcDbArc
50
-55.38461538461533
51
26.205401270668929
0
LINE
5
26F
100
AcDbEntity
8
CUTOUTS
100
AcDbLine
10
-29.451942044183021
20
-18.579477231264825
30
0
11
-28.452219999506653
21
-17.889418928002755
31
0
0
ARC
5
270
100
AcDbEntity
8
CUTOUTS
100
AcDbCircle
10
-29.040095102802937
20
-19.176140534037724
30
0
40
0.72499999999999609
210
0
220
0
230
1
100
AcDbArc
50
124.6153846153844
51
214.61538461538481
0
LINE
5
271
100
AcDbEntity
8
CUTOUTS
100
AcDbLine
10
-28.824425817750292
20
-20.764854403645742
30
0
11
-29.636758405575844
21
-19.587987475417815
31
0
0
ARC
5
272
100
AcDbEntity
8
CUTOUTS
100
AcDbCircle
10
-28.227762514977385
20
-20.353007462265648
30
0
40
0.72500000000000842
210
0
220
0
230
1
100
AcDbArc
50
214.61538461538476
51
304.61538461538458
0
LINE
5
273
100
AcDbEntity
8
CUTOUTS
100
AcDbLine
10
-26.816193528920927
20
-20.259612461776491
30
0
11
-27.815915573597291
21
-20.949670765038558
31
0
0
ARC
5
274
100
AcDbEntity
8
CUTOUTS
100
AcDbCircle
10
-26.205523926184931
20
-21.144320117612168
30
0
40
1.0750000000000182
210
0
220
-0
230
1
100
AcDbArc
50
43.025367957125773
51
124.61538461538508
0
ARC
5
275
100
AcDbEntity
8
CUTOUTS
100
AcDbCircle
10
1.0270895245412248e-10
20
5.4695137308158337e-12
30
0
40
32.600000000083519
210
0
220
0
230
1
100
AcDbArc
50
218.76288868157681
51
224.31403439526736
0
ARC
5
276
100
AcDbEntity
8
CUTOUTS
100
AcDbCircle
10
-24.148881075937396
20
-23.465789998679803
30
0
40
1.0749999999999957
210
-0
220
0
230
1
100
AcDbArc
50
-41.538461538461497
51
40.051555115361154
0
LINE
5
277
100
AcDbEntity
8
CUTOUTS
100
AcDbLine
10
-24.149762199390121
20
-25.087902464612512
30
0
11
-23.344232021653465
21
-24.178646856288655
31
0
0
ARC
5
278
100
AcDbEntity
8
CUTOUTS
100
AcDbCircle
10
-23.607091906966073
20
-25.568666391837091
30
0
40
0.72499999999999987
210
0
220
0
230
1
100
AcDbArc
50
138.46153846153831
51
228.46153846153834
0
LINE
5
279
100
AcDbEntity
8
CUTOUTS
100
AcDbLine
10
-23.017485464305981
20
-27.059602085545471
30
0
11
-24.087855834190648
21
-26.11133668426114
31
0
0
ARC
5
27A
100
AcDbEntity
8
CUTOUTS
100
AcDbCircle
10
-22.536721537081405
20
-26.516931793121422
30
0
40
0.72499999999999987
210
0
220
0
230
1
100
AcDbArc
50
228.46153846153848
51
318.46153846153828
0
LINE
5
27B
100
AcDbEntity
8
CUTOUTS
100
AcDbLine
10
-21.188521066920639
20
-26.088440112022194
30
0
11
-21.994051244657356
21
-26.997695720346002
31
0
0
ARC
5
27C
100
AcDbEntity
8
CUTOUTS
100
AcDbCircle
10
-20.383872012636761
20
-26.801296969631004
30
0
40
1.0749999999999407
210
0
220
-0
230
1
100
AcDbArc
50
56.871521803226102
51
138.46153846153842
0
ARC
5
27D
100
AcDbEntity
8
CUTOUTS
100
AcDbCircle
10
1.0270895245412248e-10
20
5.4695137308158337e-12
30
0
40
32.600000000066707
210
0
220
0
230
1
100
AcDbArc
50
232.60904252770035
51
238.16018824143123
0
ARC
5
27E
100
AcDbEntity
8
CUTOUTS
100
AcDbCircle
10
-17.831427359109856
20
-28.563122305145448
30
0
40
1.0749999999999955
210
-0
220
0
230
1
100
AcDbArc
50
-27.692307692307566
51
53.897708960326355
0
LINE
5
27F
100
AcDbEntity
8
CUTOUTS
100
AcDbLine
10
-17.444085956382608
20
-30.138309997532012
30
0
11
-16.879562131532658
21
-29.062699715092496
31
0
0
ARC
5
280
100
AcDbEntity
8
CUTOUTS
100
AcDbCircle
10
-16.802130337784028
20
-30.475234297263739
30
0
40
0.72500000000000075
210
0
220
0
230
1
100
AcDbArc
50
152.30769230769278
51
242.30769230769224
0
LINE
5
281
100
AcDbEntity
8
CUTOUTS
100
AcDbLine
10
-15.872852520831678
20
-31.78174405188491
30
0
11
-17.139054637515766
21
-31.117189915862326
31
0
0
ARC
5
282
100
AcDbEntity
8
CUTOUTS
100
AcDbCircle
10
-15.535928221099944
20
-31.139788433286331
30
0
40
0.72500000000000286
210
0
220
0
230
1
100
AcDbArc
50
242.30769230769224
51
332.30769230769221
0
LINE
5
283
100
AcDbEntity
8
CUTOUTS
100
AcDbLine
10
-14.329448777651372
20
-30.401102450578573
30
0
11
-14.893972602501366
21
-31.476712733018065
31
0
0
ARC
5
284
100
AcDbEntity
8
CUTOUTS
100
AcDbCircle
10
-13.377583550074213
20
-30.900679860525603
30
0
40
1.0749999999999362
210
0
220
-0
230
1
100
AcDbArc
50
70.71767564937754
51
152.30769230769246
0
ARC
5
285
100
AcDbEntity
8
CUTOUTS
100
AcDbCircle
10
1.0270895245412248e-10
20
5.4695137308158337e-12
30
0
40
32.600000000046037
210
0
220
0
230
1
100
AcDbArc
50
246.45519637383023
51
252.00634208759408
0
ARC
5
286
100
AcDbEntity
8
CUTOUTS
100
AcDbCircle
10
-10.477675898772119
20
-32.000469765961235
30
0
40
1.0750000000000004
210
-0
220
0
230
1
100
AcDbArc
50
-13.846153846154344
51
67.743862805584527
0
LINE
5
287
100
AcDbEntity
8
CUTOUTS
100
AcDbLine
10
-9.7246228442626919
20
-33.43718850169445
30
0
11
-9.4339134450391136
21
-32.257734105070369
31
0
0
ARC
5
288
100
AcDbEntity
8
CUTOUTS
100
AcDbCircle
10
-9.020690026628797
20
-33.610692358302927
30
0
40
0.72500000000000686
210
0
220
0
230
1
100
AcDbArc
50
166.1538461538465
51
256.15384615384562
0
LINE
5
289
100
AcDbEntity
8
CUTOUTS
100
AcDbLine
10
-7.8057470843180345
20
-34.65684657586803
30
0
11
-9.1941938832372845
21
-34.314625175936818
31
0
0
ARC
5
28A
100
AcDbEntity
8
CUTOUTS
100
AcDbCircle
10
-7.6322432277095551
20
-33.952913758234132
30
0
40
0.72500000000000853
210
0
220
0
230
1
100
AcDbArc
50
256.1538461538463
51
346.1538461538459
0
LINE
5
28B
100
AcDbEntity
8
CUTOUTS
100
AcDbLine
10
-6.6376010108521086
20
-32.946963218218521
30
0
11
-6.928310410075663
21
-34.126417614842609
31
0
0
ARC
5
28C
100
AcDbEntity
8
CUTOUTS
100
AcDbCircle
10
-5.5938385571190787
20
-33.204227557327648
30
0
40
1.0750000000000166
210
0
220
-0
230
1
100
AcDbArc
50
84.563829495579711
51
166.15384615384622
0
ARC
5
28D
100
AcDbEntity
8
CUTOUTS
100
AcDbCircle
10
1.0270895245412248e-10
20
5.4695137308158337e-12
30
0
40
32.600000000022696
210
0
220
0
230
1
100
AcDbArc
50
260.30135021996784
51
265.8524959337534
0
ARC
5
28E
100
AcDbEntity
8
CUTOUTS
100
AcDbCircle
10
-2.5150000000000174
20
-33.578066240954215
30
0
40
1.074999999999998
210
-0
220
0
230
1
100
AcDbArc
50
0
51
81.590016651247822
0
LINE
5
28F
100
AcDbEntity
8
CUTOUTS
100
AcDbLine
10
-1.4400000000000195
20
-34.792819149373379
30
0
11
-1.4400000000000193
21
-33.578066240954215
31
0
0
CIRCLE
5
290
100
AcDbEntity
8
PERIMETER
100
AcDbCircle
10
0
20
0
30
0
40
90.075000000000003
210
0
220
0
230
1
0
ENDSEC
0
SECTION
2
OBJECTS
0
DICTIONARY
5
C
100
AcDbDictionary
3
ACAD_GROUP
350
D
3
ACAD_MLINESTYLE
350
17
0
DICTIONARY
5
D
100
AcDbDictionary
0
DICTIONARY
5
1A
330
C
100
AcDbDictionary
0
DICTIONARY
5
17
100
AcDbDictionary
0
ENDSEC
0
EOF
