0
SECTION
2
HEADER
9
$INSUNITS
70
4
9
$ACADVER
1
AC1014
9
$HANDSEED
5
FFFF
0
ENDSEC
0
SECTION
2
TABLES
0
TABLE
2
VPORT
5
8
100
AcDbSymbolTable
0
ENDTAB
0
TABLE
2
LTYPE
5
5
100
AcDbSymbolTable
0
LTYPE
5
14
100
AcDbSymbolTableRecord
100
AcDbLinetypeTableRecord
2
BYBLOCK
70
0
0
LTYPE
5
15
100
AcDbSymbolTableRecord
100
AcDbLinetypeTableRecord
2
BYLAYER
70
0
0
ENDTAB
0
TABLE
2
LAYER
5
2
100
AcDbSymbolTable
70
2
0
LAYER
5
50
100
AcDbSymbolTableRecord
100
AcDbLayerTableRecord
2
0
70
0
6
CONTINUOUS
0
ENDTAB
0
TABLE
2
STYLE
5
3
100
AcDbSymbolTable
70
1
0
STYLE
5
11
100
AcDbSymbolTableRecord
100
AcDbTextStyleTableRecord
2
STANDARD
70
0
0
ENDTAB
0
TABLE
2
VIEW
5
6
100
AcDbSymbolTable
70
0
0
ENDTAB
0
TABLE
2
UCS
5
7
100
AcDbSymbolTable
70
0
0
ENDTAB
0
TABLE
2
APPID
5
9
100
AcDbSymbolTable
70
2
0
APPID
5
12
100
AcDbSymbolTableRecord
100
AcDbRegAppTableRecord
2
ACAD
70
0
0
ENDTAB
0
TABLE
2
DIMSTYLE
5
A
100
AcDbSymbolTable
70
1
0
ENDTAB
0
TABLE
2
BLOCK_RECORD
5
1
100
AcDbSymbolTable
70
1
0
BLOCK_RECORD
5
1F
100
AcDbSymbolTableRecord
100
AcDbBlockTableRecord
2
*MODEL_SPACE
0
BLOCK_RECORD
5
1B
100
AcDbSymbolTableRecord
100
AcDbBlockTableRecord
2
*PAPER_SPACE
0
ENDTAB
0
ENDSEC
0
SECTION
2
BLOCKS
0
BLOCK
5
20
100
AcDbEntity
100
AcDbBlockBegin
2
*MODEL_SPACE
0
ENDBLK
5
21
100
AcDbEntity
100
AcDbBlockEnd
0
BLOCK
5
1C
100
AcDbEntity
100
AcDbBlockBegin
2
*PAPER_SPACE
0
ENDBLK
5
1D
100
AcDbEntity
100
AcDbBlockEnd
0
ENDSEC
0
SECTION
2
ENTITIES
0
CIRCLE
5
100
100
AcDbEntity
8
0
100
AcDbCircle
10
-109.32856569610182
20
46.075400411603681
30
0
40
3.2499999999999964
210
-2.4651903288156619e-32
220
-6.8422776578360184e-48
230
1
0
CIRCLE
5
101
100
AcDbEntity
8
0
100
AcDbCircle
10
-68.528565696101879
20
32.475400411603694
30
0
40
3.2500000000000053
210
-2.4651903288156619e-32
220
3.0814879110195705e-33
230
1
0
CIRCLE
5
102
100
AcDbEntity
8
0
100
AcDbCircle
10
-68.528565696101865
20
18.875400411603682
30
0
40
3.2500000000000053
210
-2.4651903288156619e-32
220
3.0814879110195705e-33
230
1
0
CIRCLE
5
103
100
AcDbEntity
8
0
100
AcDbCircle
10
-136.52856569610177
20
86.875400411603692
30
0
40
3.2499999999999964
210
-2.4651903288156619e-32
220
-6.8422776578360184e-48
230
1
0
CIRCLE
5
104
100
AcDbEntity
8
0
100
AcDbCircle
10
-82.128565696101887
20
86.875400411603735
30
0
40
3.2500000000000053
210
-2.4651903288156619e-32
220
3.0814879110195705e-33
230
1
0
CIRCLE
5
105
100
AcDbEntity
8
0
100
AcDbCircle
10
-95.728565696101825
20
18.875400411603668
30
0
40
3.2500000000000053
210
-2.4651903288156619e-32
220
3.0814879110195705e-33
230
1
0
CIRCLE
5
106
100
AcDbEntity
8
0
100
AcDbCircle
10
-122.9285656961018
20
73.275400411603698
30
0
40
3.2499999999999964
210
-2.4651903288156619e-32
220
-6.8422776578360184e-48
230
1
0
CIRCLE
5
107
100
AcDbEntity
8
0
100
AcDbCircle
10
-150.1285656961017
20
32.475400411603644
30
0
40
3.2499999999999964
210
-2.4651903288156619e-32
220
-6.8422776578360184e-48
230
1
0
CIRCLE
5
108
100
AcDbEntity
8
0
100
AcDbCircle
10
-109.32856569610182
20
73.275400411603698
30
0
40
3.2499999999999964
210
-2.4651903288156619e-32
220
-6.8422776578360184e-48
230
1
0
CIRCLE
5
109
100
AcDbEntity
8
0
100
AcDbCircle
10
-122.9285656961018
20
86.875400411603721
30
0
40
3.2499999999999964
210
-2.4651903288156619e-32
220
-6.8422776578360184e-48
230
1
0
CIRCLE
5
110
100
AcDbEntity
8
0
100
AcDbCircle
10
-122.9285656961018
20
46.075400411603681
30
0
40
3.2499999999999964
210
-2.4651903288156619e-32
220
-6.8422776578360184e-48
230
1
0
CIRCLE
5
111
100
AcDbEntity
8
0
100
AcDbCircle
10
-136.52856569610177
20
73.275400411603684
30
0
40
3.2499999999999964
210
-2.4651903288156619e-32
220
-6.8422776578360184e-48
230
1
0
CIRCLE
5
112
100
AcDbEntity
8
0
100
AcDbCircle
10
-95.728565696101839
20
32.475400411603673
30
0
40
3.2500000000000053
210
-2.4651903288156619e-32
220
3.0814879110195705e-33
230
1
0
CIRCLE
5
113
100
AcDbEntity
8
0
100
AcDbCircle
10
-82.128565696101887
20
59.675400411603718
30
0
40
3.2500000000000053
210
-2.4651903288156619e-32
220
3.0814879110195705e-33
230
1
0
CIRCLE
5
114
100
AcDbEntity
8
0
100
AcDbCircle
10
-54.928565696101927
20
86.875400411603749
30
0
40
3.2500000000000053
210
-2.4651903288156619e-32
220
3.0814879110195705e-33
230
1
0
CIRCLE
5
115
100
AcDbEntity
8
0
100
AcDbCircle
10
-68.528565696101879
20
86.875400411603749
30
0
40
3.2500000000000053
210
-2.4651903288156619e-32
220
3.0814879110195705e-33
230
1
0
CIRCLE
5
116
100
AcDbEntity
8
0
100
AcDbCircle
10
-136.52856569610177
20
32.475400411603651
30
0
40
3.2499999999999964
210
-2.4651903288156619e-32
220
-6.8422776578360184e-48
230
1
0
CIRCLE
5
117
100
AcDbEntity
8
0
100
AcDbCircle
10
-54.928565696101906
20
59.675400411603732
30
0
40
3.2500000000000053
210
-2.4651903288156619e-32
220
3.0814879110195705e-33
230
1
0
CIRCLE
5
118
100
AcDbEntity
8
0
100
AcDbCircle
10
-109.3285656961018
20
18.87540041160366
30
0
40
3.2499999999999964
210
-2.4651903288156619e-32
220
-6.8422776578360184e-48
230
1
0
CIRCLE
5
119
100
AcDbEntity
8
0
100
AcDbCircle
10
-150.12856569610173
20
59.675400411603675
30
0
40
3.2499999999999964
210
-2.4651903288156619e-32
220
-6.8422776578360184e-48
230
1
0
CIRCLE
5
120
100
AcDbEntity
8
0
100
AcDbCircle
10
-136.52856569610177
20
59.675400411603682
30
0
40
3.2499999999999964
210
-2.4651903288156619e-32
220
-6.8422776578360184e-48
230
1
0
CIRCLE
5
121
100
AcDbEntity
8
0
100
AcDbCircle
10
-82.128565696101873
20
46.075400411603695
30
0
40
3.2500000000000053
210
-2.4651903288156619e-32
220
3.0814879110195705e-33
230
1
0
CIRCLE
5
122
100
AcDbEntity
8
0
100
AcDbCircle
10
-109.32856569610182
20
86.875400411603721
30
0
40
3.2499999999999964
210
-2.4651903288156619e-32
220
-6.8422776578360184e-48
230
1
0
CIRCLE
5
123
100
AcDbEntity
8
0
100
AcDbCircle
10
-95.728565696101839
20
86.875400411603721
30
0
40
3.2500000000000053
210
-2.4651903288156619e-32
220
3.0814879110195705e-33
230
1
0
CIRCLE
5
124
100
AcDbEntity
8
0
100
AcDbCircle
10
-136.52856569610177
20
46.07540041160366
30
0
40
3.2499999999999964
210
-2.4651903288156619e-32
220
-6.8422776578360184e-48
230
1
0
CIRCLE
5
125
100
AcDbEntity
8
0
100
AcDbCircle
10
-150.12856569610173
20
46.07540041160366
30
0
40
3.2499999999999964
210
-2.4651903288156619e-32
220
-6.8422776578360184e-48
230
1
0
CIRCLE
5
126
100
AcDbEntity
8
0
100
AcDbCircle
10
-68.528565696101879
20
59.675400411603725
30
0
40
3.2500000000000053
210
-2.4651903288156619e-32
220
3.0814879110195705e-33
230
1
0
CIRCLE
5
127
100
AcDbEntity
8
0
100
AcDbCircle
10
-95.728565696101839
20
59.675400411603704
30
0
40
3.2500000000000053
210
-2.4651903288156619e-32
220
3.0814879110195705e-33
230
1
0
CIRCLE
5
128
100
AcDbEntity
8
0
100
AcDbCircle
10
-122.92856569610178
20
18.87540041160365
30
0
40
3.2499999999999964
210
-2.4651903288156619e-32
220
-6.8422776578360184e-48
230
1
0
CIRCLE
5
129
100
AcDbEntity
8
0
100
AcDbCircle
10
-41.32856569610194
20
59.675400411603746
30
0
40
3.2500000000000053
210
-2.4651903288156619e-32
220
3.0814879110195705e-33
230
1
0
CIRCLE
5
130
100
AcDbEntity
8
0
100
AcDbCircle
10
-41.328565696101947
20
86.875400411603749
30
0
40
3.2500000000000053
210
-2.4651903288156619e-32
220
3.0814879110195705e-33
230
1
0
CIRCLE
5
131
100
AcDbEntity
8
0
100
AcDbCircle
10
-41.328565696101933
20
18.8754004116037
30
0
40
3.2500000000000053
210
-2.4651903288156619e-32
220
3.0814879110195705e-33
230
1
0
CIRCLE
5
132
100
AcDbEntity
8
0
100
AcDbCircle
10
-41.32856569610194
20
73.275400411603741
30
0
40
3.2500000000000053
210
-2.4651903288156619e-32
220
3.0814879110195705e-33
230
1
0
CIRCLE
5
133
100
AcDbEntity
8
0
100
AcDbCircle
10
-122.9285656961018
20
59.67540041160369
30
0
40
3.2499999999999964
210
-2.4651903288156619e-32
220
-6.8422776578360184e-48
230
1
0
CIRCLE
5
134
100
AcDbEntity
8
0
100
AcDbCircle
10
-82.128565696101873
20
32.475400411603687
30
0
40
3.2500000000000053
210
-2.4651903288156619e-32
220
3.0814879110195705e-33
230
1
0
CIRCLE
5
135
100
AcDbEntity
8
0
100
AcDbCircle
10
-136.52856569610177
20
18.875400411603643
30
0
40
3.2499999999999964
210
-2.4651903288156619e-32
220
-6.8422776578360184e-48
230
1
0
CIRCLE
5
136
100
AcDbEntity
8
0
100
AcDbCircle
10
-68.528565696101879
20
46.075400411603702
30
0
40
3.2500000000000053
210
-2.4651903288156619e-32
220
3.0814879110195705e-33
230
1
0
CIRCLE
5
137
100
AcDbEntity
8
0
100
AcDbCircle
10
-68.528565696101879
20
73.275400411603727
30
0
40
3.2500000000000053
210
-2.4651903288156619e-32
220
3.0814879110195705e-33
230
1
0
CIRCLE
5
138
100
AcDbEntity
8
0
100
AcDbCircle
10
-95.728565696101839
20
73.275400411603712
30
0
40
3.2500000000000053
210
-2.4651903288156619e-32
220
3.0814879110195705e-33
230
1
0
CIRCLE
5
139
100
AcDbEntity
8
0
100
AcDbCircle
10
-109.3285656961018
20
32.475400411603665
30
0
40
3.2499999999999964
210
-2.4651903288156619e-32
220
-6.8422776578360184e-48
230
1
0
CIRCLE
5
140
100
AcDbEntity
8
0
100
AcDbCircle
10
-54.928565696101906
20
18.875400411603692
30
0
40
3.2500000000000053
210
-2.4651903288156619e-32
220
3.0814879110195705e-33
230
1
0
CIRCLE
5
141
100
AcDbEntity
8
0
100
AcDbCircle
10
-150.1285656961017
20
18.875400411603632
30
0
40
3.2499999999999964
210
-2.4651903288156619e-32
220
-6.8422776578360184e-48
230
1
0
CIRCLE
5
142
100
AcDbEntity
8
0
100
AcDbCircle
10
-95.728565696101839
20
46.075400411603688
30
0
40
3.2500000000000053
210
-2.4651903288156619e-32
220
3.0814879110195705e-33
230
1
0
CIRCLE
5
143
100
AcDbEntity
8
0
100
AcDbCircle
10
-54.928565696101906
20
46.075400411603709
30
0
40
3.2500000000000053
210
-2.4651903288156619e-32
220
3.0814879110195705e-33
230
1
0
CIRCLE
5
144
100
AcDbEntity
8
0
100
AcDbCircle
10
-82.128565696101887
20
73.275400411603727
30
0
40
3.2500000000000053
210
-2.4651903288156619e-32
220
3.0814879110195705e-33
230
1
0
CIRCLE
5
145
100
AcDbEntity
8
0
100
AcDbCircle
10
-150.12856569610173
20
73.27540041160367
30
0
40
3.2499999999999964
210
-2.4651903288156619e-32
220
-6.8422776578360184e-48
230
1
0
CIRCLE
5
146
100
AcDbEntity
8
0
100
AcDbCircle
10
-82.128565696101873
20
18.875400411603675
30
0
40
3.2500000000000053
210
-2.4651903288156619e-32
220
3.0814879110195705e-33
230
1
0
CIRCLE
5
147
100
AcDbEntity
8
0
100
AcDbCircle
10
-122.92856569610178
20
32.475400411603658
30
0
40
3.2499999999999964
210
-2.4651903288156619e-32
220
-6.8422776578360184e-48
230
1
0
CIRCLE
5
148
100
AcDbEntity
8
0
100
AcDbCircle
10
-41.328565696101933
20
46.075400411603724
30
0
40
3.2500000000000053
210
-2.4651903288156619e-32
220
3.0814879110195705e-33
230
1
0
CIRCLE
5
149
100
AcDbEntity
8
0
100
AcDbCircle
10
-41.328565696101933
20
32.475400411603708
30
0
40
3.2500000000000053
210
-2.4651903288156619e-32
220
3.0814879110195705e-33
230
1
0
CIRCLE
5
150
100
AcDbEntity
8
0
100
AcDbCircle
10
-150.12856569610173
20
86.875400411603678
30
0
40
3.2499999999999964
210
-2.4651903288156619e-32
220
-6.8422776578360184e-48
230
1
0
CIRCLE
5
151
100
AcDbEntity
8
0
100
AcDbCircle
10
-54.928565696101913
20
73.275400411603741
30
0
40
3.2500000000000053
210
-2.4651903288156619e-32
220
3.0814879110195705e-33
230
1
0
CIRCLE
5
152
100
AcDbEntity
8
0
100
AcDbCircle
10
-54.928565696101906
20
32.475400411603701
30
0
40
3.2500000000000053
210
-2.4651903288156619e-32
220
3.0814879110195705e-33
230
1
0
CIRCLE
5
153
100
AcDbEntity
8
0
100
AcDbCircle
10
-109.32856569610182
20
59.675400411603697
30
0
40
3.2499999999999964
210
-2.4651903288156619e-32
220
-6.8422776578360184e-48
230
1
0
LWPOLYLINE
5
154
100
AcDbEntity
8
0
100
AcDbPolyline
90
8
70
1
43
0.0
10
-158.60856569610175
20
94.115400411603702
42
-0.41421356237309509
10
-156.60856569610178
20
96.115400411603687
10
-34.84856569610195
20
96.115400411603787
42
-0.4142135623730957
10
-32.848565696101957
20
94.115400411603787
10
-32.848565696101943
20
11.635400411603683
42
-0.41421356237309409
10
-34.848565696101943
20
9.6354004116036869
10
-156.60856569610175
20
9.6354004116036158
42
-0.41421356237309337
10
-158.60856569610175
20
11.635400411603598
0
ENDSEC
0
SECTION
2
OBJECTS
0
DICTIONARY
5
C
100
AcDbDictionary
3
ACAD_GROUP
350
D
3
ACAD_MLINESTYLE
350
17
0
DICTIONARY
5
D
100
AcDbDictionary
0
DICTIONARY
5
1A
330
C
100
AcDbDictionary
0
DICTIONARY
5
17
100
AcDbDictionary
0
ENDSEC
0
EOF
