0
SECTION
2
HEADER
9
$INSUNITS
70
4
9
$ACADVER
1
AC1014
9
$HANDSEED
5
FFFF
0
ENDSEC
0
SECTION
2
TABLES
0
TABLE
2
VPORT
5
8
100
AcDbSymbolTable
0
ENDTAB
0
TABLE
2
LTYPE
5
5
100
AcDbSymbolTable
0
LTYPE
5
14
100
AcDbSymbolTableRecord
100
AcDbLinetypeTableRecord
2
BYBLOCK
70
0
0
LTYPE
5
15
100
AcDbSymbolTableRecord
100
AcDbLinetypeTableRecord
2
BYLAYER
70
0
0
ENDTAB
0
TABLE
2
LAYER
5
2
100
AcDbSymbolTable
70
2
0
LAYER
5
50
100
AcDbSymbolTableRecord
100
AcDbLayerTableRecord
2
0
70
0
6
CONTINUOUS
0
ENDTAB
0
TABLE
2
STYLE
5
3
100
AcDbSymbolTable
70
1
0
STYLE
5
11
100
AcDbSymbolTableRecord
100
AcDbTextStyleTableRecord
2
STANDARD
70
0
0
ENDTAB
0
TABLE
2
VIEW
5
6
100
AcDbSymbolTable
70
0
0
ENDTAB
0
TABLE
2
UCS
5
7
100
AcDbSymbolTable
70
0
0
ENDTAB
0
TABLE
2
APPID
5
9
100
AcDbSymbolTable
70
2
0
APPID
5
12
100
AcDbSymbolTableRecord
100
AcDbRegAppTableRecord
2
ACAD
70
0
0
ENDTAB
0
TABLE
2
DIMSTYLE
5
A
100
AcDbSymbolTable
70
1
0
ENDTAB
0
TABLE
2
BLOCK_RECORD
5
1
100
AcDbSymbolTable
70
1
0
BLOCK_RECORD
5
1F
100
AcDbSymbolTableRecord
100
AcDbBlockTableRecord
2
*MODEL_SPACE
0
BLOCK_RECORD
5
1B
100
AcDbSymbolTableRecord
100
AcDbBlockTableRecord
2
*PAPER_SPACE
0
ENDTAB
0
ENDSEC
0
SECTION
2
BLOCKS
0
BLOCK
5
20
100
AcDbEntity
100
AcDbBlockBegin
2
*MODEL_SPACE
0
ENDBLK
5
21
100
AcDbEntity
100
AcDbBlockEnd
0
BLOCK
5
1C
100
AcDbEntity
100
AcDbBlockBegin
2
*PAPER_SPACE
0
ENDBLK
5
1D
100
AcDbEntity
100
AcDbBlockEnd
0
ENDSEC
0
SECTION
2
ENTITIES
0
CIRCLE
5
100
100
AcDbEntity
8
0
100
AcDbCircle
10
-187.29856569610166
20
50.435400411603638
30
0
40
2.7500000000000027
210
0
220
-0
230
1
0
CIRCLE
5
101
100
AcDbEntity
8
0
100
AcDbCircle
10
-135.82856569610175
20
36.875400411603671
30
0
40
1.9999999999999942
210
2.4651903288156619e-32
220
-3.0814879110195712e-33
230
1
0
CIRCLE
5
102
100
AcDbEntity
8
0
100
AcDbCircle
10
-126.82856569610175
20
36.875400411603678
30
0
40
1.9999999999999942
210
2.4651903288156619e-32
220
-3.0814879110195712e-33
230
1
0
CIRCLE
5
103
100
AcDbEntity
8
0
100
AcDbCircle
10
-126.82856569610178
20
45.875400411603678
30
0
40
1.9999999999999942
210
2.4651903288156619e-32
220
-3.0814879110195712e-33
230
1
0
CIRCLE
5
104
100
AcDbEntity
8
0
100
AcDbCircle
10
-117.82856569610178
20
63.875400411603714
30
0
40
1.9999999999999942
210
2.4651903288156619e-32
220
-3.0814879110195712e-33
230
1
0
CIRCLE
5
105
100
AcDbEntity
8
0
100
AcDbCircle
10
-99.828565696101805
20
72.875400411603735
30
0
40
2.0000000000000031
210
2.4651903288156624e-32
220
-9.244463733058728e-33
230
1
0
CIRCLE
5
106
100
AcDbEntity
8
0
100
AcDbCircle
10
-90.828565696101833
20
72.875400411603749
30
0
40
2.0000000000000031
210
2.4651903288156624e-32
220
-9.244463733058728e-33
230
1
0
CIRCLE
5
107
100
AcDbEntity
8
0
100
AcDbCircle
10
-126.82856569610178
20
63.875400411603707
30
0
40
1.9999999999999942
210
2.4651903288156619e-32
220
-3.0814879110195712e-33
230
1
0
CIRCLE
5
108
100
AcDbEntity
8
0
100
AcDbCircle
10
-117.82856569610176
20
18.875400411603664
30
0
40
1.9999999999999942
210
2.4651903288156619e-32
220
-3.0814879110195712e-33
230
1
0
CIRCLE
5
109
100
AcDbEntity
8
0
100
AcDbCircle
10
-54.828565696101876
20
18.875400411603703
30
0
40
2.0000000000000031
210
2.4651903288156624e-32
220
-9.244463733058728e-33
230
1
0
CIRCLE
5
110
100
AcDbEntity
8
0
100
AcDbCircle
10
-63.828565696101862
20
18.8754004116037
30
0
40
2.0000000000000031
210
2.4651903288156624e-32
220
-9.244463733058728e-33
230
1
0
CIRCLE
5
111
100
AcDbEntity
8
0
100
AcDbCircle
10
-45.82856569610189
20
18.87540041160371
30
0
40
2.0000000000000031
210
2.4651903288156624e-32
220
-9.244463733058728e-33
230
1
0
CIRCLE
5
112
100
AcDbEntity
8
0
100
AcDbCircle
10
-90.828565696101805
20
18.875400411603678
30
0
40
2.0000000000000031
210
2.4651903288156624e-32
220
-9.244463733058728e-33
230
1
0
CIRCLE
5
113
100
AcDbEntity
8
0
100
AcDbCircle
10
-81.828565696101819
20
18.875400411603685
30
0
40
2.0000000000000031
210
2.4651903288156624e-32
220
-9.244463733058728e-33
230
1
0
CIRCLE
5
114
100
AcDbEntity
8
0
100
AcDbCircle
10
-72.828565696101847
20
18.875400411603692
30
0
40
2.0000000000000031
210
2.4651903288156624e-32
220
-9.244463733058728e-33
230
1
0
CIRCLE
5
115
100
AcDbEntity
8
0
100
AcDbCircle
10
-144.82856569610175
20
45.875400411603671
30
0
40
1.9999999999999942
210
2.4651903288156619e-32
220
-3.0814879110195712e-33
230
1
0
CIRCLE
5
116
100
AcDbEntity
8
0
100
AcDbCircle
10
-108.82856569610182
20
72.875400411603721
30
0
40
1.9999999999999942
210
2.4651903288156619e-32
220
-3.0814879110195712e-33
230
1
0
CIRCLE
5
117
100
AcDbEntity
8
0
100
AcDbCircle
10
-135.82856569610175
20
18.875400411603653
30
0
40
1.9999999999999942
210
2.4651903288156619e-32
220
-3.0814879110195712e-33
230
1
0
CIRCLE
5
118
100
AcDbEntity
8
0
100
AcDbCircle
10
-144.82856569610172
20
18.87540041160365
30
0
40
1.9999999999999942
210
2.4651903288156619e-32
220
-3.0814879110195712e-33
230
1
0
CIRCLE
5
119
100
AcDbEntity
8
0
100
AcDbCircle
10
-135.82856569610175
20
27.875400411603664
30
0
40
1.9999999999999942
210
2.4651903288156619e-32
220
-3.0814879110195712e-33
230
1
0
CIRCLE
5
120
100
AcDbEntity
8
0
100
AcDbCircle
10
-144.82856569610175
20
81.875400411603692
30
0
40
1.9999999999999942
210
2.4651903288156619e-32
220
-3.0814879110195712e-33
230
1
0
CIRCLE
5
121
100
AcDbEntity
8
0
100
AcDbCircle
10
-54.82856569610189
20
54.875400411603735
30
0
40
2.0000000000000031
210
2.4651903288156624e-32
220
-9.244463733058728e-33
230
1
0
CIRCLE
5
122
100
AcDbEntity
8
0
100
AcDbCircle
10
-63.828565696101869
20
54.875400411603728
30
0
40
2.0000000000000031
210
2.4651903288156624e-32
220
-9.244463733058728e-33
230
1
0
CIRCLE
5
123
100
AcDbEntity
8
0
100
AcDbCircle
10
-72.828565696101862
20
54.875400411603728
30
0
40
2.0000000000000031
210
2.4651903288156624e-32
220
-9.244463733058728e-33
230
1
0
CIRCLE
5
124
100
AcDbEntity
8
0
100
AcDbCircle
10
-81.828565696101833
20
54.875400411603721
30
0
40
2.0000000000000031
210
2.4651903288156624e-32
220
-9.244463733058728e-33
230
1
0
CIRCLE
5
125
100
AcDbEntity
8
0
100
AcDbCircle
10
-54.828565696101883
20
45.875400411603728
30
0
40
2.0000000000000031
210
2.4651903288156624e-32
220
-9.244463733058728e-33
230
1
0
CIRCLE
5
126
100
AcDbEntity
8
0
100
AcDbCircle
10
-108.8285656961018
20
36.875400411603685
30
0
40
1.9999999999999942
210
2.4651903288156619e-32
220
-3.0814879110195712e-33
230
1
0
CIRCLE
5
127
100
AcDbEntity
8
0
100
AcDbCircle
10
-90.828565696101833
20
54.875400411603721
30
0
40
2.0000000000000031
210
2.4651903288156624e-32
220
-9.244463733058728e-33
230
1
0
CIRCLE
5
128
100
AcDbEntity
8
0
100
AcDbCircle
10
-63.828565696101862
20
45.875400411603728
30
0
40
2.0000000000000031
210
2.4651903288156624e-32
220
-9.244463733058728e-33
230
1
0
CIRCLE
5
129
100
AcDbEntity
8
0
100
AcDbCircle
10
-54.828565696101876
20
27.87540041160371
30
0
40
2.0000000000000031
210
2.4651903288156624e-32
220
-9.244463733058728e-33
230
1
0
CIRCLE
5
130
100
AcDbEntity
8
0
100
AcDbCircle
10
-72.828565696101862
20
81.875400411603749
30
0
40
2.0000000000000031
210
2.4651903288156624e-32
220
-9.244463733058728e-33
230
1
0
CIRCLE
5
131
100
AcDbEntity
8
0
100
AcDbCircle
10
-63.828565696101876
20
81.875400411603749
30
0
40
2.0000000000000031
210
2.4651903288156624e-32
220
-9.244463733058728e-33
230
1
0
CIRCLE
5
132
100
AcDbEntity
8
0
100
AcDbCircle
10
-54.82856569610189
20
81.875400411603749
30
0
40
2.0000000000000031
210
2.4651903288156624e-32
220
-9.244463733058728e-33
230
1
0
CIRCLE
5
133
100
AcDbEntity
8
0
100
AcDbCircle
10
-126.82856569610178
20
72.875400411603721
30
0
40
1.9999999999999942
210
2.4651903288156619e-32
220
-3.0814879110195712e-33
230
1
0
CIRCLE
5
134
100
AcDbEntity
8
0
100
AcDbCircle
10
-117.82856569610178
20
72.875400411603721
30
0
40
1.9999999999999942
210
2.4651903288156619e-32
220
-3.0814879110195712e-33
230
1
0
CIRCLE
5
135
100
AcDbEntity
8
0
100
AcDbCircle
10
-144.82856569610175
20
72.875400411603707
30
0
40
1.9999999999999942
210
2.4651903288156619e-32
220
-3.0814879110195712e-33
230
1
0
CIRCLE
5
136
100
AcDbEntity
8
0
100
AcDbCircle
10
-45.828565696101904
20
81.875400411603763
30
0
40
2.0000000000000031
210
2.4651903288156624e-32
220
-9.244463733058728e-33
230
1
0
CIRCLE
5
137
100
AcDbEntity
8
0
100
AcDbCircle
10
-135.82856569610175
20
72.875400411603721
30
0
40
1.9999999999999942
210
2.4651903288156619e-32
220
-3.0814879110195712e-33
230
1
0
CIRCLE
5
138
100
AcDbEntity
8
0
100
AcDbCircle
10
-144.82856569610175
20
54.875400411603685
30
0
40
1.9999999999999942
210
2.4651903288156619e-32
220
-3.0814879110195712e-33
230
1
0
CIRCLE
5
139
100
AcDbEntity
8
0
100
AcDbCircle
10
-45.828565696101904
20
63.875400411603763
30
0
40
2.0000000000000031
210
2.4651903288156624e-32
220
-9.244463733058728e-33
230
1
0
CIRCLE
5
140
100
AcDbEntity
8
0
100
AcDbCircle
10
-144.82856569610172
20
27.875400411603657
30
0
40
1.9999999999999942
210
2.4651903288156619e-32
220
-3.0814879110195712e-33
230
1
0
CIRCLE
5
141
100
AcDbEntity
8
0
100
AcDbCircle
10
-135.82856569610175
20
54.875400411603692
30
0
40
1.9999999999999942
210
2.4651903288156619e-32
220
-3.0814879110195712e-33
230
1
0
CIRCLE
5
142
100
AcDbEntity
8
0
100
AcDbCircle
10
-126.82856569610175
20
27.875400411603664
30
0
40
1.9999999999999942
210
2.4651903288156619e-32
220
-3.0814879110195712e-33
230
1
0
CIRCLE
5
143
100
AcDbEntity
8
0
100
AcDbCircle
10
-126.82856569610175
20
18.87540041160366
30
0
40
1.9999999999999942
210
2.4651903288156619e-32
220
-3.0814879110195712e-33
230
1
0
CIRCLE
5
144
100
AcDbEntity
8
0
100
AcDbCircle
10
-144.82856569610172
20
36.875400411603671
30
0
40
1.9999999999999942
210
2.4651903288156619e-32
220
-3.0814879110195712e-33
230
1
0
CIRCLE
5
145
100
AcDbEntity
8
0
100
AcDbCircle
10
-90.828565696101833
20
81.875400411603735
30
0
40
2.0000000000000031
210
2.4651903288156624e-32
220
-9.244463733058728e-33
230
1
0
CIRCLE
5
146
100
AcDbEntity
8
0
100
AcDbCircle
10
-90.828565696101833
20
63.875400411603735
30
0
40
2.0000000000000031
210
2.4651903288156624e-32
220
-9.244463733058728e-33
230
1
0
CIRCLE
5
147
100
AcDbEntity
8
0
100
AcDbCircle
10
-99.828565696101805
20
63.875400411603721
30
0
40
2.0000000000000031
210
2.4651903288156624e-32
220
-9.244463733058728e-33
230
1
0
CIRCLE
5
148
100
AcDbEntity
8
0
100
AcDbCircle
10
-81.828565696101833
20
63.875400411603735
30
0
40
2.0000000000000031
210
2.4651903288156624e-32
220
-9.244463733058728e-33
230
1
0
CIRCLE
5
149
100
AcDbEntity
8
0
100
AcDbCircle
10
-90.828565696101833
20
45.875400411603707
30
0
40
2.0000000000000031
210
2.4651903288156624e-32
220
-9.244463733058728e-33
230
1
0
CIRCLE
5
150
100
AcDbEntity
8
0
100
AcDbCircle
10
-54.82856569610189
20
72.875400411603763
30
0
40
2.0000000000000031
210
2.4651903288156624e-32
220
-9.244463733058728e-33
230
1
0
CIRCLE
5
151
100
AcDbEntity
8
0
100
AcDbCircle
10
-99.828565696101805
20
45.8754004116037
30
0
40
2.0000000000000031
210
2.4651903288156624e-32
220
-9.244463733058728e-33
230
1
0
CIRCLE
5
152
100
AcDbEntity
8
0
100
AcDbCircle
10
-45.828565696101904
20
72.875400411603778
30
0
40
2.0000000000000031
210
2.4651903288156624e-32
220
-9.244463733058728e-33
230
1
0
CIRCLE
5
153
100
AcDbEntity
8
0
100
AcDbCircle
10
-72.828565696101862
20
45.875400411603721
30
0
40
2.0000000000000031
210
2.4651903288156624e-32
220
-9.244463733058728e-33
230
1
0
CIRCLE
5
154
100
AcDbEntity
8
0
100
AcDbCircle
10
-81.828565696101833
20
45.875400411603707
30
0
40
2.0000000000000031
210
2.4651903288156624e-32
220
-9.244463733058728e-33
230
1
0
CIRCLE
5
155
100
AcDbEntity
8
0
100
AcDbCircle
10
-117.82856569610176
20
27.875400411603675
30
0
40
1.9999999999999942
210
2.4651903288156619e-32
220
-3.0814879110195712e-33
230
1
0
CIRCLE
5
156
100
AcDbEntity
8
0
100
AcDbCircle
10
-54.828565696101883
20
36.875400411603721
30
0
40
2.0000000000000031
210
2.4651903288156624e-32
220
-9.244463733058728e-33
230
1
0
CIRCLE
5
157
100
AcDbEntity
8
0
100
AcDbCircle
10
-63.828565696101862
20
27.87540041160371
30
0
40
2.0000000000000031
210
2.4651903288156624e-32
220
-9.244463733058728e-33
230
1
0
CIRCLE
5
158
100
AcDbEntity
8
0
100
AcDbCircle
10
-99.828565696101805
20
27.875400411603685
30
0
40
2.0000000000000031
210
2.4651903288156624e-32
220
-9.244463733058728e-33
230
1
0
CIRCLE
5
159
100
AcDbEntity
8
0
100
AcDbCircle
10
-90.828565696101833
20
27.875400411603692
30
0
40
2.0000000000000031
210
2.4651903288156624e-32
220
-9.244463733058728e-33
230
1
0
CIRCLE
5
160
100
AcDbEntity
8
0
100
AcDbCircle
10
-81.828565696101833
20
27.875400411603692
30
0
40
2.0000000000000031
210
2.4651903288156624e-32
220
-9.244463733058728e-33
230
1
0
CIRCLE
5
161
100
AcDbEntity
8
0
100
AcDbCircle
10
-45.828565696101897
20
27.875400411603721
30
0
40
2.0000000000000031
210
2.4651903288156624e-32
220
-9.244463733058728e-33
230
1
0
CIRCLE
5
162
100
AcDbEntity
8
0
100
AcDbCircle
10
-63.828565696101876
20
72.875400411603749
30
0
40
2.0000000000000031
210
2.4651903288156624e-32
220
-9.244463733058728e-33
230
1
0
CIRCLE
5
163
100
AcDbEntity
8
0
100
AcDbCircle
10
-90.828565696101833
20
36.875400411603692
30
0
40
2.0000000000000031
210
2.4651903288156624e-32
220
-9.244463733058728e-33
230
1
0
CIRCLE
5
164
100
AcDbEntity
8
0
100
AcDbCircle
10
-63.828565696101862
20
36.875400411603714
30
0
40
2.0000000000000031
210
2.4651903288156624e-32
220
-9.244463733058728e-33
230
1
0
CIRCLE
5
165
100
AcDbEntity
8
0
100
AcDbCircle
10
-81.828565696101833
20
72.875400411603749
30
0
40
2.0000000000000031
210
2.4651903288156624e-32
220
-9.244463733058728e-33
230
1
0
CIRCLE
5
166
100
AcDbEntity
8
0
100
AcDbCircle
10
-81.828565696101833
20
36.875400411603707
30
0
40
2.0000000000000031
210
2.4651903288156624e-32
220
-9.244463733058728e-33
230
1
0
CIRCLE
5
167
100
AcDbEntity
8
0
100
AcDbCircle
10
-72.828565696101862
20
72.875400411603749
30
0
40
2.0000000000000031
210
2.4651903288156624e-32
220
-9.244463733058728e-33
230
1
0
CIRCLE
5
168
100
AcDbEntity
8
0
100
AcDbCircle
10
-45.828565696101904
20
54.875400411603749
30
0
40
2.0000000000000031
210
2.4651903288156624e-32
220
-9.244463733058728e-33
230
1
0
CIRCLE
5
169
100
AcDbEntity
8
0
100
AcDbCircle
10
-117.82856569610178
20
45.875400411603692
30
0
40
1.9999999999999942
210
2.4651903288156619e-32
220
-3.0814879110195712e-33
230
1
0
CIRCLE
5
170
100
AcDbEntity
8
0
100
AcDbCircle
10
-108.82856569610182
20
45.8754004116037
30
0
40
1.9999999999999942
210
2.4651903288156619e-32
220
-3.0814879110195712e-33
230
1
0
CIRCLE
5
171
100
AcDbEntity
8
0
100
AcDbCircle
10
-108.82856569610182
20
54.875400411603707
30
0
40
1.9999999999999942
210
2.4651903288156619e-32
220
-3.0814879110195712e-33
230
1
0
CIRCLE
5
172
100
AcDbEntity
8
0
100
AcDbCircle
10
-99.828565696101805
20
54.875400411603714
30
0
40
2.0000000000000031
210
2.4651903288156624e-32
220
-9.244463733058728e-33
230
1
0
CIRCLE
5
173
100
AcDbEntity
8
0
100
AcDbCircle
10
-135.82856569610175
20
81.875400411603721
30
0
40
1.9999999999999942
210
2.4651903288156619e-32
220
-3.0814879110195712e-33
230
1
0
CIRCLE
5
174
100
AcDbEntity
8
0
100
AcDbCircle
10
-126.82856569610178
20
81.875400411603721
30
0
40
1.9999999999999942
210
2.4651903288156619e-32
220
-3.0814879110195712e-33
230
1
0
CIRCLE
5
175
100
AcDbEntity
8
0
100
AcDbCircle
10
-81.828565696101833
20
81.875400411603735
30
0
40
2.0000000000000031
210
2.4651903288156624e-32
220
-9.244463733058728e-33
230
1
0
CIRCLE
5
176
100
AcDbEntity
8
0
100
AcDbCircle
10
-117.82856569610178
20
81.875400411603721
30
0
40
1.9999999999999942
210
2.4651903288156619e-32
220
-3.0814879110195712e-33
230
1
0
CIRCLE
5
177
100
AcDbEntity
8
0
100
AcDbCircle
10
-108.82856569610182
20
81.875400411603721
30
0
40
1.9999999999999942
210
2.4651903288156619e-32
220
-3.0814879110195712e-33
230
1
0
CIRCLE
5
178
100
AcDbEntity
8
0
100
AcDbCircle
10
-108.8285656961018
20
18.875400411603671
30
0
40
1.9999999999999942
210
2.4651903288156619e-32
220
-3.0814879110195712e-33
230
1
0
CIRCLE
5
179
100
AcDbEntity
8
0
100
AcDbCircle
10
-72.828565696101862
20
36.875400411603714
30
0
40
2.0000000000000031
210
2.4651903288156624e-32
220
-9.244463733058728e-33
230
1
0
CIRCLE
5
180
100
AcDbEntity
8
0
100
AcDbCircle
10
-117.82856569610178
20
54.875400411603707
30
0
40
1.9999999999999942
210
2.4651903288156619e-32
220
-3.0814879110195712e-33
230
1
0
CIRCLE
5
181
100
AcDbEntity
8
0
100
AcDbCircle
10
-99.828565696101805
20
81.875400411603735
30
0
40
2.0000000000000031
210
2.4651903288156624e-32
220
-9.244463733058728e-33
230
1
0
CIRCLE
5
182
100
AcDbEntity
8
0
100
AcDbCircle
10
-99.828565696101791
20
18.875400411603675
30
0
40
2.0000000000000031
210
2.4651903288156624e-32
220
-9.244463733058728e-33
230
1
0
CIRCLE
5
183
100
AcDbEntity
8
0
100
AcDbCircle
10
-117.82856569610176
20
36.875400411603685
30
0
40
1.9999999999999942
210
2.4651903288156619e-32
220
-3.0814879110195712e-33
230
1
0
CIRCLE
5
184
100
AcDbEntity
8
0
100
AcDbCircle
10
-99.828565696101805
20
36.875400411603692
30
0
40
2.0000000000000031
210
2.4651903288156624e-32
220
-9.244463733058728e-33
230
1
0
CIRCLE
5
185
100
AcDbEntity
8
0
100
AcDbCircle
10
-45.828565696101904
20
45.875400411603735
30
0
40
2.0000000000000031
210
2.4651903288156624e-32
220
-9.244463733058728e-33
230
1
0
CIRCLE
5
186
100
AcDbEntity
8
0
100
AcDbCircle
10
-72.828565696101862
20
27.8754004116037
30
0
40
2.0000000000000031
210
2.4651903288156624e-32
220
-9.244463733058728e-33
230
1
0
CIRCLE
5
187
100
AcDbEntity
8
0
100
AcDbCircle
10
-144.82856569610175
20
63.8754004116037
30
0
40
1.9999999999999942
210
2.4651903288156619e-32
220
-3.0814879110195712e-33
230
1
0
CIRCLE
5
188
100
AcDbEntity
8
0
100
AcDbCircle
10
-135.82856569610175
20
63.875400411603707
30
0
40
1.9999999999999942
210
2.4651903288156619e-32
220
-3.0814879110195712e-33
230
1
0
CIRCLE
5
189
100
AcDbEntity
8
0
100
AcDbCircle
10
-45.828565696101897
20
36.875400411603721
30
0
40
2.0000000000000031
210
2.4651903288156624e-32
220
-9.244463733058728e-33
230
1
0
CIRCLE
5
190
100
AcDbEntity
8
0
100
AcDbCircle
10
-108.8285656961018
20
27.875400411603685
30
0
40
1.9999999999999942
210
2.4651903288156619e-32
220
-3.0814879110195712e-33
230
1
0
CIRCLE
5
191
100
AcDbEntity
8
0
100
AcDbCircle
10
-63.828565696101876
20
63.875400411603742
30
0
40
2.0000000000000031
210
2.4651903288156624e-32
220
-9.244463733058728e-33
230
1
0
CIRCLE
5
192
100
AcDbEntity
8
0
100
AcDbCircle
10
-72.828565696101862
20
63.875400411603742
30
0
40
2.0000000000000031
210
2.4651903288156624e-32
220
-9.244463733058728e-33
230
1
0
CIRCLE
5
193
100
AcDbEntity
8
0
100
AcDbCircle
10
-135.82856569610175
20
45.875400411603678
30
0
40
1.9999999999999942
210
2.4651903288156619e-32
220
-3.0814879110195712e-33
230
1
0
CIRCLE
5
194
100
AcDbEntity
8
0
100
AcDbCircle
10
-126.82856569610178
20
54.875400411603692
30
0
40
1.9999999999999942
210
2.4651903288156619e-32
220
-3.0814879110195712e-33
230
1
0
CIRCLE
5
195
100
AcDbEntity
8
0
100
AcDbCircle
10
-108.82856569610182
20
63.875400411603714
30
0
40
1.9999999999999942
210
2.4651903288156619e-32
220
-3.0814879110195712e-33
230
1
0
CIRCLE
5
196
100
AcDbEntity
8
0
100
AcDbCircle
10
-54.82856569610189
20
63.875400411603749
30
0
40
2.0000000000000031
210
2.4651903288156624e-32
220
-9.244463733058728e-33
230
1
0
LWPOLYLINE
5
197
100
AcDbEntity
8
0
100
AcDbPolyline
90
16
70
1
43
0.0
10
-191.29856569610169
20
60.435400411603652
10
-162.29856569610178
20
60.43540041160368
42
0.4142135623730977
10
-159.29856569610175
20
63.43540041160368
10
-159.29856569610175
20
90.175400411603661
42
-0.41421356237309681
10
-156.29856569610169
20
93.175400411603704
10
-30.038565696101941
20
93.175400411603775
42
-0.41421356237309109
10
-27.038565696101948
20
90.175400411603761
10
-27.038565696101919
20
10.695400411603712
42
-0.41421356237309981
10
-30.038565696101962
20
7.6954004116037078
10
-156.29856569610172
20
7.6954004116036323
42
-0.41421356237309548
10
-159.29856569610172
20
10.695400411603661
10
-159.29856569610172
20
37.435400411603638
42
0.4142135623730907
10
-162.29856569610172
20
40.435400411603652
10
-191.29856569610166
20
40.435400411603631
42
-0.41421356237309587
10
-194.29856569610166
20
43.435400411603652
10
-194.29856569610166
20
57.435400411603645
42
-0.41421356237309165
0
ENDSEC
0
SECTION
2
OBJECTS
0
DICTIONARY
5
C
100
AcDbDictionary
3
ACAD_GROUP
350
D
3
ACAD_MLINESTYLE
350
17
0
DICTIONARY
5
D
100
AcDbDictionary
0
DICTIONARY
5
1A
330
C
100
AcDbDictionary
0
DICTIONARY
5
17
100
AcDbDictionary
0
ENDSEC
0
EOF
